<?xml version="1.0" encoding="UTF-8" standalone="no"?>
<!-- Created with Inkscape (http://www.inkscape.org/) -->

<svg
   xmlns:dc="http://purl.org/dc/elements/1.1/"
   xmlns:cc="http://creativecommons.org/ns#"
   xmlns:rdf="http://www.w3.org/1999/02/22-rdf-syntax-ns#"
   xmlns:svg="http://www.w3.org/2000/svg"
   xmlns="http://www.w3.org/2000/svg"
   xmlns:sodipodi="http://sodipodi.sourceforge.net/DTD/sodipodi-0.dtd"
   xmlns:inkscape="http://www.inkscape.org/namespaces/inkscape"
   version="1.2"
   width="80.502853"
   height="79.788803"
   id="svg2"
   inkscape:version="0.48.4 r9939"
   sodipodi:docname="12wheel.svg">
  <sodipodi:namedview
     pagecolor="#ffffff"
     bordercolor="#666666"
     borderopacity="1"
     objecttolerance="10"
     gridtolerance="10"
     guidetolerance="10"
     inkscape:pageopacity="0"
     inkscape:pageshadow="2"
     inkscape:window-width="1855"
     inkscape:window-height="1056"
     id="namedview7351"
     showgrid="false"
     inkscape:zoom="2.9578085"
     inkscape:cx="63.967076"
     inkscape:cy="47.151913"
     inkscape:window-x="65"
     inkscape:window-y="24"
     inkscape:window-maximized="1"
     inkscape:current-layer="layer1" />
  <defs
     id="defs4" />
  <metadata
     id="metadata7">
    <rdf:RDF>
      <cc:Work
         rdf:about="">
        <dc:format>image/svg+xml</dc:format>
        <dc:type
           rdf:resource="http://purl.org/dc/dcmitype/StillImage" />
        <dc:title />
      </cc:Work>
    </rdf:RDF>
  </metadata>
  <g
     transform="translate(-239.84964,-262.46146)"
     id="layer1">
    <flowRoot
       transform="matrix(0.96987804,0,0,0.96127535,83.434,11.880758)"
       id="flowRoot3931"
       xml:space="preserve"
       style="font-size:40px;font-style:normal;font-weight:normal;line-height:125%;letter-spacing:0px;word-spacing:0px;fill:#000000;fill-opacity:1;stroke:none;font-family:Sans"><flowRegion
         id="flowRegion3933"><rect
           width="66.071426"
           height="47.142857"
           x="108.92857"
           y="261.64789"
           id="rect3935" /></flowRegion><flowPara
         id="flowPara3937" /></flowRoot>    <flowRoot
       transform="matrix(0.96987804,0,0,0.96127535,163.79114,11.880758)"
       id="flowRoot3978"
       xml:space="preserve"
       style="font-size:40px;font-style:normal;font-weight:normal;line-height:125%;letter-spacing:0px;word-spacing:0px;fill:#000000;fill-opacity:1;stroke:none;font-family:Sans"><flowRegion
         id="flowRegion3980"><rect
           width="66.071426"
           height="47.142857"
           x="108.92857"
           y="261.64789"
           id="rect3982" /></flowRegion><flowPara
         id="flowPara3984" /></flowRoot>    <path
       d="m 183.34268,285.40387 a 40.911175,40.911175 0 1 1 -81.82235,0 40.911175,40.911175 0 1 1 81.82235,0 z"
       transform="matrix(0.28498796,0,0,0.28246016,239.34562,195.48952)"
       id="path3988"
       style="fill:#8fd35f;fill-opacity:0.30588236;stroke:#3a3a3a;stroke-width:3.45243263000000011;stroke-linecap:butt;stroke-linejoin:miter;stroke-miterlimit:4;stroke-opacity:1;stroke-dasharray:none" />
    <path
       d="m 183.34268,285.40387 a 40.911175,40.911175 0 1 1 -81.82235,0 40.911175,40.911175 0 1 1 81.82235,0 z"
       transform="matrix(0.28498796,0,0,0.28246016,239.692,247.67304)"
       id="path3990"
       style="fill:#5fbcd3;fill-opacity:0.30588236;stroke:#3a3a3a;stroke-width:3.45243263000000011;stroke-linecap:butt;stroke-linejoin:miter;stroke-miterlimit:4;stroke-opacity:1;stroke-dasharray:none" />
    <path
       d="m 183.34268,285.40387 a 40.911175,40.911175 0 1 1 -81.82235,0 40.911175,40.911175 0 1 1 81.82235,0 z"
       transform="matrix(0.24680681,-0.14249398,0.14123008,0.24461767,191.45353,230.16777)"
       id="path4017"
       style="fill:#c5d35f;fill-opacity:0.30588236;stroke:#3a3a3a;stroke-width:3.45243263000000011;stroke-linecap:butt;stroke-linejoin:miter;stroke-miterlimit:4;stroke-opacity:1;stroke-dasharray:none" />
    <path
       d="m 183.34268,285.40387 a 40.911175,40.911175 0 1 1 -81.82235,0 40.911175,40.911175 0 1 1 81.82235,0 z"
       transform="matrix(0.24680681,-0.14249398,0.14123008,0.24461767,217.84526,275.18684)"
       id="path4019"
       style="fill:#5fd3be;fill-opacity:0.30588236;stroke:#3a3a3a;stroke-width:3.45243263000000011;stroke-linecap:butt;stroke-linejoin:miter;stroke-miterlimit:4;stroke-opacity:1;stroke-dasharray:none" />
    <path
       d="m 183.34268,285.40387 a 40.911175,40.911175 0 1 1 -81.82235,0 40.911175,40.911175 0 1 1 81.82235,0 z"
       transform="matrix(0.14249398,-0.24680681,0.24461767,0.14123008,167.31689,284.14606)"
       id="path4021"
       style="fill:#d1d35f;fill-opacity:0.30588236;stroke:#3a3a3a;stroke-width:3.45243263000000011;stroke-linecap:butt;stroke-linejoin:miter;stroke-miterlimit:4;stroke-opacity:1;stroke-dasharray:none" />
    <path
       d="m 183.34268,285.40387 a 40.911175,40.911175 0 1 1 -81.82235,0 40.911175,40.911175 0 1 1 81.82235,0 z"
       transform="matrix(0.14249398,-0.24680681,0.24461767,0.14123008,212.68233,309.93785)"
       id="path4023"
       style="fill:#5fd3ae;fill-opacity:0.30588236;stroke:#3a3a3a;stroke-width:3.45243263000000011;stroke-linecap:butt;stroke-linejoin:miter;stroke-miterlimit:4;stroke-opacity:1;stroke-dasharray:none" />
    <path
       d="m 183.34268,285.40387 a 40.911175,40.911175 0 1 1 -81.82235,0 40.911175,40.911175 0 1 1 81.82235,0 z"
       transform="matrix(0,-0.28498796,0.28246016,0,173.40309,342.96095)"
       id="path4025"
       style="fill:#d3c25f;fill-opacity:0.30588236;stroke:#3a3a3a;stroke-width:3.45243263000000011;stroke-linecap:butt;stroke-linejoin:miter;stroke-miterlimit:4;stroke-opacity:1;stroke-dasharray:none" />
    <path
       d="m 183.34268,285.40387 a 40.911175,40.911175 0 1 1 -81.82235,0 40.911175,40.911175 0 1 1 81.82235,0 z"
       transform="matrix(0,-0.28498796,0.28246016,0,225.58661,342.61458)"
       id="path4027"
       style="fill:#5fbcd3;fill-opacity:0.30588236;stroke:#3a3a3a;stroke-width:3.45243263000000011;stroke-linecap:butt;stroke-linejoin:miter;stroke-miterlimit:4;stroke-opacity:1;stroke-dasharray:none" />
    <path
       d="m 183.34268,285.40387 a 40.911175,40.911175 0 1 1 -81.82235,0 40.911175,40.911175 0 1 1 81.82235,0 z"
       transform="matrix(-0.14249398,-0.24680681,0.24461767,-0.14123008,208.08134,390.85304)"
       id="path4029"
       style="fill:#d39b5f;fill-opacity:0.3059361;stroke:#3a3a3a;stroke-width:3.45243263000000011;stroke-linecap:butt;stroke-linejoin:miter;stroke-miterlimit:4;stroke-opacity:1;stroke-dasharray:none" />
    <path
       d="m 183.34268,285.40387 a 40.911175,40.911175 0 1 1 -81.82235,0 40.911175,40.911175 0 1 1 81.82235,0 z"
       transform="matrix(-0.14249398,-0.24680681,0.24461767,-0.14123008,253.10041,364.46132)"
       id="path4031"
       style="fill:#5fd37c;fill-opacity:0.30588236;stroke:#3a3a3a;stroke-width:3.45243263000000011;stroke-linecap:butt;stroke-linejoin:miter;stroke-miterlimit:4;stroke-opacity:1;stroke-dasharray:none" />
    <path
       d="m 183.34268,285.40387 a 40.911175,40.911175 0 1 1 -81.82235,0 40.911175,40.911175 0 1 1 81.82235,0 z"
       transform="matrix(-0.24680681,-0.14249398,0.14123008,-0.24461767,262.05963,414.98968)"
       id="path4033"
       style="fill:#d35f5f;fill-opacity:0.30588236;stroke:#3a3a3a;stroke-width:3.45243263000000011;stroke-linecap:butt;stroke-linejoin:miter;stroke-miterlimit:4;stroke-opacity:1;stroke-dasharray:none" />
    <path
       d="m 183.34268,285.40387 a 40.911175,40.911175 0 1 1 -81.82235,0 40.911175,40.911175 0 1 1 81.82235,0 z"
       transform="matrix(-0.24680681,-0.14249398,0.14123008,-0.24461767,287.85143,369.62425)"
       id="path4035"
       style="fill:#69d35f;fill-opacity:0.30588236;stroke:#3a3a3a;stroke-width:3.45243263000000011;stroke-linecap:butt;stroke-linejoin:miter;stroke-miterlimit:4;stroke-opacity:1;stroke-dasharray:none" />
    <path
       d="m 183.34268,285.40387 a 40.911175,40.911175 0 1 1 -81.82235,0 40.911175,40.911175 0 1 1 81.82235,0 z"
       transform="matrix(0.93641992,0,0,0.928114,146.73438,37.480829)"
       id="path3986"
       style="fill:none;stroke:#3a3a3a;stroke-width:4.14291906;stroke-linecap:butt;stroke-linejoin:miter;stroke-miterlimit:4;stroke-opacity:1;stroke-dasharray:none" />
  </g>
</svg>
