<?xml version="1.0" encoding="UTF-8" standalone="no"?>
<!-- Created with Inkscape (http://www.inkscape.org/) -->

<svg
   xmlns:dc="http://purl.org/dc/elements/1.1/"
   xmlns:cc="http://creativecommons.org/ns#"
   xmlns:rdf="http://www.w3.org/1999/02/22-rdf-syntax-ns#"
   xmlns:svg="http://www.w3.org/2000/svg"
   xmlns="http://www.w3.org/2000/svg"
   xmlns:sodipodi="http://sodipodi.sourceforge.net/DTD/sodipodi-0.dtd"
   xmlns:inkscape="http://www.inkscape.org/namespaces/inkscape"
   version="1.2"
   width="80.502853"
   height="79.788803"
   id="svg2"
   inkscape:version="0.48.4 r9939"
   sodipodi:docname="4wheel.svg">
  <sodipodi:namedview
     pagecolor="#ffffff"
     bordercolor="#666666"
     borderopacity="1"
     objecttolerance="10"
     gridtolerance="10"
     guidetolerance="10"
     inkscape:pageopacity="0"
     inkscape:pageshadow="2"
     inkscape:window-width="1855"
     inkscape:window-height="1056"
     id="namedview7038"
     showgrid="true"
     fit-margin-top="0"
     fit-margin-left="0"
     fit-margin-right="0"
     fit-margin-bottom="0"
     inkscape:zoom="5.8983535"
     inkscape:cx="5.2016519"
     inkscape:cy="29.203996"
     inkscape:window-x="65"
     inkscape:window-y="24"
     inkscape:window-maximized="1"
     inkscape:current-layer="layer1">
    <inkscape:grid
       type="xygrid"
       id="grid8387"
       empspacing="5"
       visible="true"
       enabled="true"
       snapvisiblegridlinesonly="true" />
  </sodipodi:namedview>
  <defs
     id="defs4" />
  <metadata
     id="metadata7">
    <rdf:RDF>
      <cc:Work
         rdf:about="">
        <dc:format>image/svg+xml</dc:format>
        <dc:type
           rdf:resource="http://purl.org/dc/dcmitype/StillImage" />
        <dc:title></dc:title>
      </cc:Work>
    </rdf:RDF>
  </metadata>
  <g
     transform="translate(-159.49249,-262.46146)"
     id="layer1">
    <flowRoot
       transform="matrix(0.96987804,0,0,0.96127535,83.434,11.880758)"
       id="flowRoot3931"
       xml:space="preserve"
       style="font-size:40px;font-style:normal;font-weight:normal;line-height:125%;letter-spacing:0px;word-spacing:0px;fill:#000000;fill-opacity:1;stroke:none;font-family:Sans"><flowRegion
         id="flowRegion3933"><rect
           width="66.071426"
           height="47.142857"
           x="108.92857"
           y="261.64789"
           id="rect3935" /></flowRegion><flowPara
         id="flowPara3937" /></flowRoot>    <path
       d="m 183.34268,285.40387 a 40.911175,40.911175 0 1 1 -81.82235,0 40.911175,40.911175 0 1 1 81.82235,0 z"
       transform="matrix(0.52547348,0,0,0.52081261,124.86238,136.18619)"
       id="path3941"
       style="fill:#45b145;fill-opacity:0.3059361;stroke:#3a3a3a;stroke-width:3.82308411999999986;stroke-linecap:butt;stroke-linejoin:miter;stroke-miterlimit:4;stroke-opacity:1;stroke-dasharray:none"
       inkscape:connector-curvature="0" />
    <path
       d="m 183.34268,285.40387 a 40.911175,40.911175 0 1 1 -81.82235,0 40.911175,40.911175 0 1 1 81.82235,0 z"
       transform="matrix(0.52547348,0,0,0.52081261,125.57667,171.54333)"
       id="path3970"
       style="fill:#c2af45;fill-opacity:0.3059361;stroke:#3a3a3a;stroke-width:3.82308411999999986;stroke-linecap:butt;stroke-linejoin:miter;stroke-miterlimit:4;stroke-opacity:1;stroke-dasharray:none"
       inkscape:connector-curvature="0" />
    <path
       d="m 183.34268,285.40387 a 40.911175,40.911175 0 1 1 -81.82235,0 40.911175,40.911175 0 1 1 81.82235,0 z"
       id="path3972"
       style="fill:#d24545;fill-opacity:0.3059361;stroke:#3a3a3a;stroke-width:3.82308411999999986;stroke-linecap:butt;stroke-linejoin:miter;stroke-miterlimit:4;stroke-opacity:1;stroke-dasharray:none"
       inkscape:connector-curvature="0"
       transform="matrix(0,-0.52547348,0.52081261,0,33.742998,377.70782)" />
    <path
       d="m 183.34268,285.40387 a 40.911175,40.911175 0 1 1 -81.82235,0 40.911175,40.911175 0 1 1 81.82235,0 z"
       id="path3974"
       style="fill:#45bea7;fill-opacity:0.3059361;stroke:#3a3a3a;stroke-width:3.82308411999999986;stroke-linecap:butt;stroke-linejoin:miter;stroke-miterlimit:4;stroke-opacity:1;stroke-dasharray:none"
       inkscape:connector-curvature="0"
       transform="matrix(0,-0.52547348,0.52081261,0,69.100138,376.99353)" />
    <flowRoot
       transform="matrix(0.96987804,0,0,0.96127535,163.79114,11.880758)"
       id="flowRoot3978"
       xml:space="preserve"
       style="font-size:40px;font-style:normal;font-weight:normal;line-height:125%;letter-spacing:0px;word-spacing:0px;fill:#000000;fill-opacity:1;stroke:none;font-family:Sans"><flowRegion
         id="flowRegion3980"><rect
           width="66.071426"
           height="47.142857"
           x="108.92857"
           y="261.64789"
           id="rect3982" /></flowRegion><flowPara
         id="flowPara3984" /></flowRoot>    <path
       sodipodi:type="arc"
       style="fill:#eca5d7;stroke:#3a3a3a;stroke-width:2;stroke-linecap:round;stroke-linejoin:round;stroke-miterlimit:4;stroke-opacity:1;stroke-dasharray:none;stroke-dashoffset:0;fill-opacity:0.44748858"
       id="path8899"
       sodipodi:cx="30"
       sodipodi:cy="29.788803"
       sodipodi:rx="10"
       sodipodi:ry="10"
       d="m 40,29.788803 a 10,10 0 1 1 -20,0 10,10 0 1 1 20,0 z"
       transform="matrix(0.73027912,0,0,0.73027912,168.34704,271.42858)" />
    <path
       transform="matrix(0.73027912,0,0,0.73027912,186.82677,271.59812)"
       d="m 40,29.788803 a 10,10 0 1 1 -20,0 10,10 0 1 1 20,0 z"
       sodipodi:ry="10"
       sodipodi:rx="10"
       sodipodi:cy="29.788803"
       sodipodi:cx="30"
       id="path8912"
       style="fill:#d7fdd7;stroke:#3a3a3a;stroke-width:2;stroke-linecap:round;stroke-linejoin:round;stroke-miterlimit:4;stroke-opacity:1;stroke-dasharray:none;stroke-dashoffset:0;fill-opacity:0.60730594"
       sodipodi:type="arc" />
    <path
       sodipodi:type="arc"
       style="fill:#8fd7d7;stroke:#3a3a3a;stroke-width:2;stroke-linecap:round;stroke-linejoin:round;stroke-miterlimit:4;stroke-opacity:1;stroke-dasharray:none;stroke-dashoffset:0;fill-opacity:0.49315068"
       id="path8914"
       sodipodi:cx="30"
       sodipodi:cy="29.788803"
       sodipodi:rx="10"
       sodipodi:ry="10"
       d="m 40,29.788803 a 10,10 0 1 1 -20,0 10,10 0 1 1 20,0 z"
       transform="matrix(0.73027912,0,0,0.73027912,186.82677,289.3997)" />
    <path
       transform="matrix(0.73027912,0,0,0.73027912,169.02519,290.41693)"
       d="m 40,29.788803 a 10,10 0 1 1 -20,0 10,10 0 1 1 20,0 z"
       sodipodi:ry="10"
       sodipodi:rx="10"
       sodipodi:cy="29.788803"
       sodipodi:cx="30"
       id="path8916"
       style="fill:#d7d78e;stroke:#3a3a3a;stroke-width:2;stroke-linecap:round;stroke-linejoin:round;stroke-miterlimit:4;stroke-opacity:1;stroke-dasharray:none;stroke-dashoffset:0;fill-opacity:0.44292238"
       sodipodi:type="arc" />
    <path
       sodipodi:type="arc"
       style="fill:#ffffff;fill-opacity:1;stroke:#3a3a3a;stroke-width:2;stroke-linecap:round;stroke-linejoin:round;stroke-miterlimit:4;stroke-opacity:1;stroke-dasharray:none;stroke-dashoffset:0"
       id="path8389"
       sodipodi:cx="40"
       sodipodi:cy="39.788803"
       sodipodi:rx="15"
       sodipodi:ry="15"
       d="m 55,39.788803 a 15,15 0 1 1 -30,0 15,15 0 1 1 30,0 z"
       transform="translate(159.49249,262.46146)" />
    <path
       d="m 183.34268,285.40387 a 40.911175,40.911175 0 1 1 -81.82235,0 40.911175,40.911175 0 1 1 81.82235,0 z"
       transform="matrix(0.93641992,0,0,0.928114,66.377236,37.480829)"
       id="path3939"
       style="fill:none;stroke:#3a3a3a;stroke-width:4.14291906;stroke-linecap:butt;stroke-linejoin:miter;stroke-miterlimit:4;stroke-opacity:1;stroke-dasharray:none"
       inkscape:connector-curvature="0" />
  </g>
</svg>
