<?xml version="1.0" encoding="UTF-8" standalone="no"?>
<!-- Created with Inkscape (http://www.inkscape.org/) -->

<svg
   xmlns:dc="http://purl.org/dc/elements/1.1/"
   xmlns:cc="http://creativecommons.org/ns#"
   xmlns:rdf="http://www.w3.org/1999/02/22-rdf-syntax-ns#"
   xmlns:svg="http://www.w3.org/2000/svg"
   xmlns="http://www.w3.org/2000/svg"
   version="1.2"
   width="330.79688"
   height="19.000004"
   id="svg2">
  <defs
     id="defs4" />
  <metadata
     id="metadata7">
    <rdf:RDF>
      <cc:Work
         rdf:about="">
        <dc:format>image/svg+xml</dc:format>
        <dc:type
           rdf:resource="http://purl.org/dc/dcmitype/StillImage" />
        <dc:title></dc:title>
      </cc:Work>
    </rdf:RDF>
  </metadata>
  <g
     transform="translate(-183.40179,-973.1108)"
     id="layer1">
    <g
       id="text2985"
       style="font-size:40px;font-style:normal;font-variant:normal;font-weight:normal;font-stretch:normal;line-height:125%;letter-spacing:0px;word-spacing:0px;fill:#808080;fill-opacity:1;stroke:none;font-family:BPdotsUnicaseSquare;-inkscape-font-specification:BPdotsUnicaseSquare">
      <g
         transform="translate(91.964287,888.39789)"
         id="flowRoot3743"
         style="line-height:125%;font-family:BPdotsUnicaseSquare;-inkscape-font-specification:BPdotsUnicaseSquare">
        <path
           d="m 95.4375,103.71291 3,0 0,-3 -3,0 0,3 m 8,0 3,0 0,-3 -3,0 0,3 m -12,-12.000003 3,0 0,-3 -3,0 0,3 m 12,4 3,0 0,-3 -3,0 0,3 m 4,0 3,0 0,-3 -3,0 0,3 m 0,8.000003 3,0 0,-3 -3,0 0,3 m -16,-8.000003 3,0 0,-3 -3,0 0,3 m 0,4 3,0 0,-3 -3,0 0,3 m 16,-8 3,0 0,-3 -3,0 0,3 m -12,-4 3,0 0,-3 -3,0 0,3 m 4,8 3,0 0,-3 -3,0 0,3 m 0,8.000003 3,0 0,-3 -3,0 0,3 m -4,-8.000003 3,0 0,-3 -3,0 0,3 m 8,-8 3,0 0,-3 -3,0 0,3 m -4,0 3,0 0,-3 -3,0 0,3"
           id="path5496" />
        <path
           d="m 119.42188,103.71291 3,0 0,-3 -3,0 0,3 m 4,-16.000003 3,0 0,-3 -3,0 0,3 m 7.99999,16.000003 3,0 0,-3 -3,0 0,3 m -3.99999,-16.000003 2.99999,0 0,-3 -2.99999,0 0,3 m 0,16.000003 2.99999,0 0,-3 -2.99999,0 0,3 m -12,-16.000003 3,0 0,-3 -3,0 0,3 m 8,4 3,0 0,-3 -3,0 0,3 m -4,-4 3,0 0,-3 -3,0 0,3 m -4,16.000003 3,0 0,-3 -3,0 0,3 m 8,0 3,0 0,-3 -3,0 0,3 m 0,-8.000003 3,0 0,-3 -3,0 0,3 m 7.99999,-8 3,0 0,-3 -3,0 0,3 m -7.99999,12 3,0 0,-3 -3,0 0,3"
           id="path5498" />
        <path
           d="m 143.40625,103.71291 3,0 0,-3 -3,0 0,3 m -4,-12.000003 3,0 0,-3 -3,0 0,3 m 0,4 3,0 0,-3 -3,0 0,3 m 0,4 3,0 0,-3 -3,0 0,3 m 16,0 3,0 0,-3 -3,0 0,3 m 0,-12 3,0 0,-3 -3,0 0,3 m -12,0 3,0 0,-3 -3,0 0,3 m 12,16.000003 3,0 0,-3 -3,0 0,3 m -8,0 3,0 0,-3 -3,0 0,3 m 0,-16.000003 3,0 0,-3 -3,0 0,3 m 4,16.000003 3,0 0,-3 -3,0 0,3 m 4,-8.000003 3,0 0,-3 -3,0 0,3 m -4,0 3,0 0,-3 -3,0 0,3 m 0,-8 3,0 0,-3 -3,0 0,3"
           id="path5500" />
        <path
           d="m 163.39062,103.71291 3,0 0,-3 -3,0 0,3 m 16,-12.000003 3,0 0,-3 -3,0 0,3 m -16,8 3,0 0,-3 -3,0 0,3 m 0,-12 3,0 0,-3 -3,0 0,3 m 4,8 3,0 0,-3 -3,0 0,3 m 12,0 3,0 0,-3 -3,0 0,3 m 0,-8 3,0 0,-3 -3,0 0,3 m -16,4 3,0 0,-3 -3,0 0,3 m 16,12.000003 3,0 0,-3 -3,0 0,3 m -8,-8.000003 3,0 0,-3 -3,0 0,3 m -8,0 3,0 0,-3 -3,0 0,3 m 12,0 3,0 0,-3 -3,0 0,3 m 4,4 3,0 0,-3 -3,0 0,3"
           id="path5502" />
        <path
           d="m 195.375,103.71291 3,0 0,-3 -3,0 0,3 m -4,-16.000003 3,0 0,-3 -3,0 0,3 m -4,0 3,0 0,-3 -3,0 0,3 m 8,0 3,0 0,-3 -3,0 0,3 m 0,8 3,0 0,-3 -3,0 0,3 m 4,-8 3,0 0,-3 -3,0 0,3 m -4,4 3,0 0,-3 -3,0 0,3 m 8,-4 3,0 0,-3 -3,0 0,3 m -8,12 3,0 0,-3 -3,0 0,3"
           id="path5504" />
        <path
           d="m 211.35937,103.71291 3,0 0,-3 -3,0 0,3 m 8,-16.000003 3,0 0,-3 -3,0 0,3 m -8,8 3,0 0,-3 -3,0 0,3 m 12,-8 3,0 0,-3 -3,0 0,3 m -12,4 3,0 0,-3 -3,0 0,3 m 4,-4 3,0 0,-3 -3,0 0,3 m -4,12 3,0 0,-3 -3,0 0,3 m 8,-4 3,0 0,-3 -3,0 0,3 m 4,0 3,0 0,-3 -3,0 0,3 m -12,-8 3,0 0,-3 -3,0 0,3 m 16,0 3,0 0,-3 -3,0 0,3 m -12,8 3,0 0,-3 -3,0 0,3"
           id="path5506" />
        <path
           d="m 239.34375,103.71291 3,0 0,-3 -3,0 0,3 m 4,0 3,0 0,-3 -3,0 0,3 m 8,-4.000003 3,0 0,-3 -3,0 0,3 m -16,0 3,0 0,-3 -3,0 0,3 m 12,4.000003 3,0 0,-3 -3,0 0,3 m 0,-16.000003 3,0 0,-3 -3,0 0,3 m -12,4 3,0 0,-3 -3,0 0,3 m 8,-4 3,0 0,-3 -3,0 0,3 m -8,8 3,0 0,-3 -3,0 0,3 m 16,0 3,0 0,-3 -3,0 0,3 m -12,-8 3,0 0,-3 -3,0 0,3 m 12,4 3,0 0,-3 -3,0 0,3"
           id="path5508" />
        <path
           d="m 259.32812,103.71291 3,0 0,-3 -3,0 0,3 m 0,-12.000003 3,0 0,-3 -3,0 0,3 m 16,12.000003 3,0 0,-3 -3,0 0,3 m -16,-8.000003 3,0 0,-3 -3,0 0,3 m 8,8.000003 3,0 0,-3 -3,0 0,3 m -8,-4.000003 3,0 0,-3 -3,0 0,3 m 4,4.000003 3,0 0,-3 -3,0 0,3 m -4,-16.000003 3,0 0,-3 -3,0 0,3 m 12,16.000003 3,0 0,-3 -3,0 0,3"
           id="path5510" />
        <path
           d="m 283.3125,103.71291 3,0 0,-3 -3,0 0,3 m 16,-4.000003 3,0 0,-3 -3,0 0,3 m 0,-8 3,0 0,-3 -3,0 0,3 m -12,-4 3,0 0,-3 -3,0 0,3 m 4,16.000003 3,0 0,-3 -3,0 0,3 m -8,-4.000003 3,0 0,-3 -3,0 0,3 m 0,-8 3,0 0,-3 -3,0 0,3 m 4,12.000003 3,0 0,-3 -3,0 0,3 m -4,-16.000003 3,0 0,-3 -3,0 0,3 m 8,0 3,0 0,-3 -3,0 0,3 m -8,8 3,0 0,-3 -3,0 0,3 m 16,0 3,0 0,-3 -3,0 0,3 m -4,-8 3,0 0,-3 -3,0 0,3 m 0,16.000003 3,0 0,-3 -3,0 0,3"
           id="path5512" />
        <path
           d="m 331.28125,103.71291 3,0 0,-3 -3,0 0,3 m 4,-8.000003 3,0 0,-3 -3,0 0,3 m 8,0 3,0 0,-3 -3,0 0,3 m -4,-8 3,0 0,-3 -3,0 0,3 m -8,4 3,0 0,-3 -3,0 0,3 m 0,4 3,0 0,-3 -3,0 0,3 m 4,-8 3,0 0,-3 -3,0 0,3 m 4,8 3,0 0,-3 -3,0 0,3 m -8,4 3,0 0,-3 -3,0 0,3 m 16,-8 3,0 0,-3 -3,0 0,3 m -4,-4 3,0 0,-3 -3,0 0,3 m -12,0 3,0 0,-3 -3,0 0,3"
           id="path5514" />
        <path
           d="m 359.26562,103.71291 3,0 0,-3 -3,0 0,3 m 12,-12.000003 3,0 0,-3 -3,0 0,3 m -12,4 3,0 0,-3 -3,0 0,3 m -4,4 3,0 0,-3 -3,0 0,3 m 16,0 3,0 0,-3 -3,0 0,3 m 0,-4 3,0 0,-3 -3,0 0,3 m -8,8.000003 3,0 0,-3 -3,0 0,3 m 0,-16.000003 3,0 0,-3 -3,0 0,3 m 4,8 3,0 0,-3 -3,0 0,3 m -8,-8 3,0 0,-3 -3,0 0,3 m 8,16.000003 3,0 0,-3 -3,0 0,3 m -4,-8.000003 3,0 0,-3 -3,0 0,3 m 4,-8 3,0 0,-3 -3,0 0,3 m 4,16.000003 3,0 0,-3 -3,0 0,3"
           id="path5516" />
        <path
           d="m 387.25,103.71291 3,0 0,-3 -3,0 0,3 m -4,-16.000003 3,0 0,-3 -3,0 0,3 m -4,0 3,0 0,-3 -3,0 0,3 m 8,0 3,0 0,-3 -3,0 0,3 m 0,8 3,0 0,-3 -3,0 0,3 m 4,-8 3,0 0,-3 -3,0 0,3 m -4,4 3,0 0,-3 -3,0 0,3 m 8,-4 3,0 0,-3 -3,0 0,3 m -8,12 3,0 0,-3 -3,0 0,3"
           id="path5518" />
        <path
           d="m 403.23437,103.71291 3,0 0,-3 -3,0 0,3 m 16,-12.000003 3,0 0,-3 -3,0 0,3 m -16,8 3,0 0,-3 -3,0 0,3 m 0,-12 3,0 0,-3 -3,0 0,3 m 4,8 3,0 0,-3 -3,0 0,3 m 12,0 3,0 0,-3 -3,0 0,3 m 0,-8 3,0 0,-3 -3,0 0,3 m -16,4 3,0 0,-3 -3,0 0,3 m 16,12.000003 3,0 0,-3 -3,0 0,3 m -8,-8.000003 3,0 0,-3 -3,0 0,3 m -8,0 3,0 0,-3 -3,0 0,3 m 12,0 3,0 0,-3 -3,0 0,3 m 4,4 3,0 0,-3 -3,0 0,3"
           id="path5520" />
      </g>
    </g>
  </g>
</svg>
