<?xml version="1.0" encoding="UTF-8" standalone="no"?>
<!-- Created with Inkscape (http://www.inkscape.org/) -->

<svg
   xmlns:dc="http://purl.org/dc/elements/1.1/"
   xmlns:cc="http://creativecommons.org/ns#"
   xmlns:rdf="http://www.w3.org/1999/02/22-rdf-syntax-ns#"
   xmlns:svg="http://www.w3.org/2000/svg"
   xmlns="http://www.w3.org/2000/svg"
   version="1.1"
   width="324.95432"
   height="446.69775"
   id="svg3213">
  <metadata
     id="metadata3219">
    <rdf:RDF>
      <cc:Work
         rdf:about="">
        <dc:format>image/svg+xml</dc:format>
        <dc:type
           rdf:resource="http://purl.org/dc/dcmitype/StillImage" />
        <dc:title></dc:title>
      </cc:Work>
    </rdf:RDF>
  </metadata>
  <defs
     id="defs3217">
    <clipPath
       id="clipPath4051">
      <rect
         width="322.31772"
         height="445.32413"
         x="-1.9328338"
         y="-7.1378536"
         id="rect4053"
         style="fill:#0000ff;fill-rule:evenodd;stroke:#000000;stroke-width:1.01789391px;stroke-linecap:butt;stroke-linejoin:miter;stroke-opacity:1" />
    </clipPath>
    <clipPath
       id="clipPath4059">
      <rect
         width="324.95432"
         height="446.69775"
         x="-1.8307285"
         y="0.45709753"
         id="rect4061"
         style="fill:#0d0d0d;fill-opacity:0.3972603;stroke:none" />
    </clipPath>
    <clipPath
       id="clipPath4063">
      <rect
         width="324.95432"
         height="446.69775"
         x="-3.7635624"
         y="-6.6807561"
         id="rect4065"
         style="fill:#0d0d0d;fill-opacity:0.3972603;stroke:none" />
    </clipPath>
  </defs>
  <g
     transform="translate(3.7635624,6.6807561)"
     clip-path="url(#clipPath4051)"
     id="g3241">
    <path
       d="m 196.98915,430.04863 c -0.37414,-1.99431 -0.13764,-8.85681 0.52555,-15.25 0.66319,-6.39318 1.24857,-15.22396 1.30084,-19.62396 0.0523,-4.4 0.52209,-8.55841 1.04404,-9.24092 0.52195,-0.6825 0.65908,-3.17428 0.30472,-5.53728 -0.6009,-4.00712 1.17995,-27.89604 3.44571,-46.2218 0.544,-4.4 1.222,-16.55 1.50666,-27 0.28466,-10.45 1.18008,-25.00542 1.98983,-32.34538 0.80975,-7.33996 1.47227,-17.41829 1.47227,-22.39629 l 0,-9.05092 -4.25,-4.73432 c -2.3375,-2.60388 -5.825,-7.25545 -7.75,-10.33682 -1.925,-3.08137 -4.0625,-5.82097 -4.75,-6.08799 -0.6875,-0.26703 -1.25,-0.98334 -1.25,-1.59179 0,-0.60845 -2.05957,-4.29005 -4.57683,-8.18134 -3.01232,-4.65656 -4.86518,-8.81842 -5.42038,-12.1751 -1.57543,-9.52504 -3.12686,-10.94068 -5.57331,-5.08551 -1.172,2.80499 -1.26417,4.77342 -0.45653,9.75 1.29097,7.95477 1.31291,19.59394 0.044,23.33624 -1.14128,3.36591 -1.63124,11.54992 -2.5084,41.89922 -0.34972,12.1 -0.82196,22.9375 -1.04942,24.08333 -0.55971,2.81951 -8.20437,11.36931 -11.17581,12.49905 -3.9199,1.49034 -7.81142,-1.21799 -9.78663,-6.81108 -0.92674,-2.62422 -2.49338,-7.04518 -3.48142,-9.82436 -1.53447,-4.31621 -1.60322,-5.40988 -0.47146,-7.5 0.81881,-1.51216 1.11214,-4.03383 0.76783,-6.60086 -0.4418,-3.29391 0.0858,-5.57133 2.54854,-11 3.92236,-8.64631 4.6397,-12.09708 6.69165,-32.18998 1.63468,-16.00699 1.3989,-30.99976 -0.53677,-34.13173 -0.69887,-1.1308 -1.71762,-1.09773 -6.17599,0.20052 -15.02545,4.37531 -17.85195,4.98869 -20.23369,4.39091 -3.37611,-0.84735 -4.25077,-4.48132 -2.78684,-11.57856 2.45878,-11.92035 11.90582,-26.01218 17.46626,-26.05384 3.73611,-0.028 14.89878,-4.56006 15.97698,-6.4867 2.26691,-4.05073 -0.70318,-39.27143 -3.55189,-42.12015 -0.9929,-0.9929 -12.75288,5.85658 -17.71489,10.31785 -2.62629,2.36126 -5.07357,5.4825 -5.43839,6.93608 -0.36483,1.45358 -1.72927,4.04386 -3.03211,5.75619 -1.30283,1.71233 -2.69792,4.43179 -3.10021,6.04325 -0.45634,1.82802 -5.75166,8.1342 -14.08011,16.76798 -16.871382,17.4899 -24.952052,27.61585 -26.395312,33.07618 -0.61434,2.32425 -2.17417,6.53723 -3.46628,9.36217 -1.29211,2.82494 -2.6417,6.87494 -2.99909,9 -1.05703,6.28513 -3.49863,13.43422 -6.95474,20.36375 -1.78303,3.575 -3.856195,8.91984 -4.607024,11.87741 -1.135348,4.47223 -2.007565,5.78295 -5.181559,7.78661 -2.099027,1.32506 -4.317551,3.50907 -4.930052,4.85337 -1.197218,2.6276 -4.087132,4.04748 -5.925487,2.91131 -0.623292,-0.38521 -2.539819,-3.67676 -4.258948,-7.31454 -2.96223,-6.26827 -3.118275,-7.20023 -2.983896,-17.82105 0.118574,-9.37159 0.475623,-11.74703 2.180256,-14.50518 3.247001,-5.25376 8.068245,-18.52038 10.280163,-28.28793 2.446299,-10.80255 3.83725,-29.38673 2.633297,-35.18289 -1.855046,-8.93068 -4.682746,-8.08415 -18.238491,5.46009 -8.055811,8.04898 -10.878366,10.23671 -14.5,11.23878 -2.47336,0.68435 -7.00198,2.08572 -10.063598,3.11415 -9.814517,3.2968 -12.646921,2.08073 -14.596223,-6.26674 -1.654119,-7.08342 -1.632166,-10.12235 0.101711,-14.07946 0.7914,-1.80616 1.691269,-4.48675 1.999708,-5.95686 0.772429,-3.68161 5.308281,-8.82337 9.228625,-10.46139 1.793344,-0.74931 3.800359,-2.37562 4.460034,-3.61403 1.559588,-2.92781 3.458641,-4.42906 8.471049,-6.69656 4.292915,-1.94201 8.401675,-6.26278 8.401675,-8.8352 0,-0.83071 3.115418,-4.70753 6.923151,-8.61514 12.227122,-12.54785 17.932161,-20.520859 26.192314,-36.604749 3.126275,-6.08737 3.345025,-7.16655 3.445985,-17 0.0593,-5.775 0.18222,-11.0625 0.27317,-11.75 0.27498,-2.078436 3.41597,-1.382593 8.10737,1.796075 2.44309,1.655325 6.90564,3.725884 9.91677,4.601242 3.43907,0.999766 6.94638,2.964255 9.43246,5.283252 l 3.957692,3.69169 -0.14861,8.177401 c -0.23118,12.72021 -2.47366,18.44293 -10.443652,26.65177 -4.62321,4.761769 -7.91937,9.385699 -10.67083,14.969319 -2.18968,4.44359 -6.22525,10.49426 -8.96793,13.44593 -5.929071,6.38088 -5.708276,7.34586 2.43839,10.65692 6.31228,2.5655 9.95378,5.47717 12.16441,9.7264 1.8441,3.54468 3.3276,3.46759 6.94222,-0.36077 4.19859,-4.44686 30.286202,-26.88923 31.256762,-26.88923 0.44672,0 3.48255,-2.46477 6.74628,-5.47726 3.26373,-3.0125 6.19289,-5.4875 6.50926,-5.5 0.61949,-0.0245 11.29418,-7.90725 14.17479,-10.467409 1.37375,-1.22094 1.73869,-3.11406 1.69739,-8.80533 -0.0673,-9.27626 -2.13934,-20.867813 -4.32703,-24.206645 -0.93691,-1.429915 -1.46744,-2.981768 -1.17895,-3.44856 0.79071,-1.279394 -4.42197,-15.296926 -6.56692,-17.659246 -2.45637,-2.705302 -2.37892,-6.918404 0.1936,-10.531179 2.33921,-3.285104 3.49357,-3.495803 8.14798,-1.487194 1.80616,0.779447 4.83053,1.993875 6.72081,2.698729 4.67622,1.74368 14.66213,10.208012 16.70614,14.160576 1.15517,2.233794 1.92952,7.509714 2.52206,17.183592 0.47029,7.678037 1.24156,14.346567 1.71394,14.818947 0.9838,0.9838 25.15805,-10.41383 27.13181,-12.792066 1.00384,-1.209559 1.14684,-4.996064 0.63348,-16.774572 -0.92343,-21.187454 -2.29129,-31.808125 -5.22047,-40.534004 -2.80458,-8.354689 -2.33696,-9.658069 3.07616,-8.574063 4.31437,0.863976 22.69649,9.83706 24.65788,12.036548 2.46398,2.763088 4.42982,19.968108 2.95208,25.836708 -0.62359,2.476523 -1.41551,7.835357 -1.75982,11.908519 l -0.62602,7.405749 6.38937,-0.512877 c 7.00332,-0.562159 15.60298,1.552462 23.88651,5.873597 5.10641,2.663778 13.71278,10.961811 15.06912,14.529231 0.54253,1.42696 0.52798,7.00278 -0.0363,13.92644 -0.87729,10.763569 -1.17589,11.897489 -4.40271,16.719229 -1.90388,2.8449 -6.54981,7.77374 -10.32429,10.95298 -3.77448,3.17924 -7.39948,6.63997 -8.05556,7.69052 -0.65608,1.05055 -3.11827,2.76741 -5.47154,3.81524 -2.35327,1.04784 -5.85367,3.43711 -7.77867,5.30948 l -3.5,3.40432 16,0.63924 c 13.16583,0.52602 17.55251,1.10674 24.76455,3.2784 27.23506,8.20094 38.57762,20.56862 41.78468,45.56112 1.0413,8.1148 -0.52106,16.50808 -3.53913,19.01286 -0.83056,0.6893 -1.5101,2.04097 -1.5101,3.00371 0,2.74737 -3.74296,10.51475 -7.33342,15.2183 -5.00899,6.56178 -19.16508,20.78637 -20.68631,20.78637 -0.74328,0 -2.28042,0.82498 -3.41587,1.83329 -2.30195,2.04419 -10.13659,5.16671 -12.96367,5.16671 -1.00779,0 -4.06422,0.7875 -6.79206,1.75 l -4.9597,1.75 -2.97924,-3.32703 c -2.27611,-2.54182 -3.29041,-3.06877 -4.29776,-2.23274 -0.72519,0.60185 -2.05629,0.81117 -2.95801,0.46515 -0.90171,-0.34602 -2.21801,-0.14899 -2.9251,0.43784 -2.35775,1.95676 -8.02403,1.56799 -12.00257,-0.82351 -2.20216,-1.32371 -4.18018,-1.91785 -4.68103,-1.40605 -0.47706,0.48749 -1.33301,6.73634 -1.90212,13.88634 -0.59515,7.47708 -1.8363,15.33662 -2.92146,18.5 -1.42166,4.14433 -2.03625,9.69026 -2.49342,22.5 -0.33369,9.35 -1.28437,20.6 -2.11262,25 -0.82825,4.4 -1.51863,11.375 -1.53416,15.5 -0.0155,4.125 -0.67603,11.325 -1.46776,16 -2.85072,16.83297 -4.77758,28.59923 -5.56788,34 -0.44266,3.025 -1.25637,7.3 -1.80825,9.5 -3.31061,13.19729 -6.16578,23.63943 -6.70004,24.50389 -1.35388,2.19061 -3.43398,0.85217 -4.08722,-2.62993 z M 275.0728,219.67752 c 9.55075,-4.55839 12.46287,-7.65793 15.50656,-16.50456 3.39106,-9.85628 1.96107,-21.57451 -3.90085,-31.96599 -3.66808,-6.50245 -6.19908,-8.25703 -15.1599,-10.50936 -9.5804,-2.40807 -12.94754,-2.61003 -27.20181,-1.63154 -16.93179,1.16227 -16.27688,0.31042 -15.93878,20.73187 0.20019,12.09203 -0.15965,18.48993 -1.38816,24.68099 -1.8383,9.2641 -1.08539,13.19574 2.527,13.19574 1.08954,0 3.03669,1.13855 4.32702,2.53011 1.93532,2.08715 3.7369,2.68753 10.29047,3.42933 13.88716,1.57188 21.35659,0.61664 30.93845,-3.95659 z m -66.23178,-26.0651 c 0.32704,-15.73316 -0.85546,-24.93775 -3.2037,-24.93775 -2.05824,0 -16.86911,7.41525 -18.97265,9.4989 -0.98399,0.97469 -1.10767,1.79618 -0.40662,2.70091 0.55411,0.71511 4.87502,6.54088 9.60202,12.94617 8.34853,11.3126 10.39424,13.34735 11.98095,11.91677 0.41924,-0.37799 0.86924,-5.83424 1,-12.125 z m -21.76225,-46.74936 c 7.89928,-4.24537 16.40599,-9.67818 19.68564,-12.57223 1.33013,-1.17373 1.59343,-2.72392 1.2484,-7.34999 -0.24048,-3.22439 -0.60822,-12.50005 -0.8172,-20.61258 -0.20898,-8.112529 -0.6635,-15.033579 -1.01004,-15.380129 -1.19854,-1.19853 -24.27658,9.993659 -26.95978,13.074719 -1.99259,2.28805 -1.95718,5.04098 0.26338,20.47771 0.9281,6.45195 0.81736,7.99863 -0.92829,12.96534 -2.27291,6.46684 -2.69446,14.54313 -0.73211,14.02604 0.6875,-0.18116 4.85,-2.26415 9.25,-4.62888 z M 234.62,113.63188 c 6.48893,-6.73526 9.99024,-13.05677 10.69501,-19.309539 0.62677,-5.56061 -1.68011,-8.24814 -7.80095,-9.08817 -5.95304,-0.81701 -7.55423,0.91546 -9.29638,10.0586 -0.72435,3.80154 -1.83943,7.888059 -2.47796,9.081159 -1.22661,2.29194 -1.58005,11.04501 -0.55396,13.71895 1.08727,2.83339 3.51058,1.68753 9.43424,-4.461 z m 248.57374,192.22491 c -1.32557,-2.09983 -3.58121,-4.58521 -5.01255,-5.52305 -1.43133,-0.93785 -2.60242,-2.44592 -2.60242,-3.35127 0,-0.90535 -1.35,-4.03816 -3,-6.96179 -1.65,-2.92364 -3,-5.895 -3,-6.60302 0,-0.70802 -1.26493,-2.85233 -2.81096,-4.76515 -5.83464,-7.21888 -9.18649,-16.84697 -5.93904,-17.05974 0.6875,-0.045 3.80973,-0.0143 6.93828,0.0682 9.19598,0.24268 9.46853,-0.11064 10.18721,-13.20633 0.34048,-6.204 0.60169,-15.32999 0.58047,-20.27999 -0.50102,-116.90312 -1.11852,-133.948959 -6.04118,-166.764221 -1.05313,-7.020333 -1.91478,-13.885809 -1.91478,-15.256613 0,-1.440005 -1.09583,-3.439609 -2.59531,-4.735758 -3.88755,-3.360397 -5.35506,-6.936285 -5.644,-13.752781 -0.4057,-9.571151 2.04628,-10.281618 15.73931,-4.560494 8.0684,3.371081 15.09455,12.264601 18.66049,23.61997 2.05432,6.541766 2.29903,9.034631 2.00743,20.449918 -0.82955,32.47393 -0.75125,36.018239 0.78823,35.681279 11.66307,-2.55277 24.73281,-1.43974 33.66656,2.86707 3.3675,1.62341 7.03185,2.95165 8.14302,2.95165 1.11116,0 2.25384,0.60862 2.53929,1.35249 1.18764,3.09495 20.10093,8.07432 27.46219,7.23007 8.07736,-0.92636 26.28659,-7.33452 29.59823,-10.41615 l 2.86543,-2.66641 -0.62288,-12.999999 c -1.71486,-35.79047 -3.46405,-50.189149 -6.55307,-53.942703 -0.47857,-0.581513 -2.46304,-4.236193 -4.40994,-8.121511 -2.65017,-5.288789 -4.43268,-7.54505 -7.0924,-8.977404 -4.154,-2.237073 -4.40585,-3.879584 -1.20775,-7.876432 1.89964,-2.374081 3.04397,-2.891393 6.13861,-2.775054 2.09204,0.07865 4.5266,0.733045 5.41014,1.454216 0.88353,0.721171 4.6522,2.844416 8.37482,4.718321 7.94908,4.001436 20.24673,15.942582 21.21527,20.600255 0.33399,1.606172 1.02959,4.52344 1.54576,6.482818 0.59548,2.260411 0.58035,4.811305 -0.0414,6.979196 -0.53894,1.87918 -1.25398,7.476052 -1.58898,12.437494 -0.565,8.367854 -0.43862,9.269454 1.74593,12.455994 2.13568,3.11526 5.91419,5.81138 12.85501,9.17258 1.57344,0.76196 6.75571,1.15831 13.98256,1.06941 19.91677,-0.24501 30.12872,2.62978 36.9536,10.40289 2.66788,3.03855 3.14969,4.26959 2.66696,6.814219 -1.33612,7.04312 -10.23443,11.08499 -22.0473,10.01454 -5.76127,-0.52208 -8.35519,-0.30615 -11.51624,0.95866 -2.24403,0.89788 -5.75845,1.64153 -7.80982,1.65255 -4.19521,0.0225 -20.54097,4.00578 -23.97073,5.84133 -1.23108,0.65886 -2.91801,2.51227 -3.74872,4.11869 -3.29978,6.38107 -5.642,21.77921 -3.745,24.62024 1.24625,1.86643 4.95286,3.3997 8.21861,3.3997 4.397,0 8.11559,2.19216 12.19047,7.18646 2.89518,3.54842 3.53065,5.16113 3.5826,9.09199 0.0347,2.62814 0.37548,7.04927 0.7572,9.82472 0.57866,4.2074 0.37153,5.40789 -1.24602,7.22155 -1.06703,1.19641 -3.31588,4.65028 -4.99744,7.67528 -1.68156,3.025 -6.60238,9.15831 -10.93516,13.62957 -8.26287,8.52698 -15.9737,20.15889 -16.99516,25.63748 -0.33152,1.77812 -1.4875,4.70687 -2.56884,6.50833 -1.08133,1.80147 -1.71143,3.93897 -1.4002,4.75 0.7723,2.0126 8.43713,1.93517 13.61739,-0.13756 2.55512,-1.02236 5.21496,-1.37397 7.27024,-0.96109 1.78255,0.3581 5.716,1.04843 8.741,1.53406 13.05624,2.09605 14.84378,2.7001 17.56682,5.93625 1.46928,1.74614 3.93592,3.8287 5.48143,4.62791 5.57782,2.8844 4.42591,7.91784 -2.54825,11.13496 -1.65,0.76113 -5.025,2.91914 -7.5,4.79559 -2.475,1.87644 -5.27992,3.44159 -6.23315,3.47811 -1.03229,0.0395 -2.71939,2.01263 -4.172,4.8792 -1.34136,2.64705 -3.18691,5.43367 -4.10123,6.19249 -0.91432,0.75882 -2.92057,3.20555 -4.45833,5.43718 -1.99545,2.89584 -4.92073,5.14854 -10.21746,7.86825 -6.77093,3.47667 -7.87722,3.75028 -12.61968,3.12117 -2.85898,-0.37926 -5.19741,-0.96909 -5.19651,-1.31073 9.1e-4,-0.34164 1.71579,-2.23397 3.81086,-4.20517 4.0268,-3.78871 10.18751,-13.7724 10.18751,-16.50926 0,-2.26505 -3.49581,-1.25339 -10.71837,3.1018 -3.1799,1.91748 -6.55347,3.48748 -7.49683,3.48889 -2.47616,0.004 -8.58394,-5.6834 -10.8281,-10.0823 -1.99727,-3.91498 -4.93393,-18.34786 -5.67989,-27.91513 -0.35724,-4.58168 0.0711,-6.55707 2.5655,-11.83101 1.64689,-3.48206 3.69571,-7.10602 4.55295,-8.05325 4.89359,-5.40736 0.34918,-10.29649 -10.15603,-10.92645 -4.69917,-0.28179 -7.34466,-0.95687 -8.73923,-2.23009 -1.1,-1.00429 -3.13437,-2.2556 -4.52082,-2.7807 -2.00327,-0.75871 -3.06268,-2.56886 -5.16008,-8.81661 -3.96095,-11.79899 -4.42916,-17.74024 -1.90307,-24.14891 1.14618,-2.90786 2.08397,-6.1815 2.08397,-7.27475 0,-1.15178 0.96353,-2.35407 2.2911,-2.85881 1.2601,-0.47909 2.85002,-1.54453 3.53315,-2.36766 0.68313,-0.82312 2.68964,-2.06783 4.45891,-2.76601 1.76926,-0.69819 4.18585,-2.13418 5.37019,-3.1911 2.04439,-1.82444 6.18045,-3.25997 12.84665,-4.45877 1.65,-0.29672 3.675,-1.09128 4.5,-1.76569 0.825,-0.6744 2.23954,-1.48706 3.14342,-1.80591 1.1647,-0.41085 1.85181,-2.37512 2.35878,-6.74322 0.92061,-7.93206 -0.0611,-8.96315 -5.25872,-5.52349 -4.55429,3.01389 -15.57056,5.13188 -21.15901,4.06804 -1.97146,-0.3753 -5.15947,-0.8272 -7.08447,-1.00422 -10.01129,-0.92065 -14.89131,-3.16206 -21.7942,-10.01012 -3.03606,-3.01194 -6.46189,-5.77167 -7.61295,-6.13274 -1.15107,-0.36107 -3.08386,-1.71895 -4.2951,-3.01751 -1.21124,-1.29856 -3.14467,-2.36102 -4.29651,-2.36102 -1.25308,0 -2.75111,-1.14449 -3.72959,-2.8494 -0.89943,-1.56717 -2.791,-3.3446 -4.20349,-3.94985 -1.41249,-0.60525 -4.19004,-2.49861 -6.17234,-4.20746 -2.13326,-1.83898 -5.99079,-3.73023 -9.45204,-4.63408 -5.32086,-1.38947 -5.9536,-1.38247 -7.02129,0.0777 -1.52046,2.07937 -1.15627,19.85395 0.58183,28.39626 0.94587,4.64871 1.08749,10.63306 0.53247,22.5 -0.41587,8.89177 -0.89092,19.07382 -1.05567,22.62676 -0.16475,3.55295 -0.86633,8.17727 -1.55906,10.27627 -1.84052,5.57682 0.58539,59.75812 3.81759,85.26383 1.37711,10.86693 0.76997,22.82533 -1.34206,26.43382 -1.76759,3.01996 -8.10807,7.06615 -11.07287,7.06615 -0.7148,0 -2.38419,-1.71805 -3.70975,-3.81788 z M 629.2998,95.868251 c 0.79496,-0.5051 1.01192,-2.06438 0.62175,-4.46868 -1.07312,-6.61285 -5.34278,-7.60993 -5.34278,-1.24767 0,5.86413 1.54469,7.73448 4.72103,5.71635 z M 421.72185,185.6662 c -4.95774,-2.72304 -8.05929,-5.9381 -10.66406,-11.05434 -1.27765,-2.50955 -2.98992,-5.11631 -3.80504,-5.7928 -1.07897,-0.89546 -1.65344,-4.41392 -2.11228,-12.93718 -0.34664,-6.43897 -1.15526,-13.45046 -1.79693,-15.5811 -1.03261,-3.42877 -0.91377,-4.3133 1.03428,-7.69812 1.21052,-2.10332 2.20095,-4.29157 2.20095,-4.86276 0,-2.05579 5.55338,-8.97616 8,-9.96924 4.34728,-1.76456 9.71809,-2.31723 11.78239,-1.21245 2.1662,1.15931 3.34358,5.87307 3.215,12.87152 -0.0609,3.31705 0.49749,4.83072 2.53321,6.86645 4.68825,4.68825 10.4854,2.56148 29.63359,-10.87151 5.29202,-3.7125 10.11142,-6.75 10.70978,-6.75 0.59836,0 1.3893,1.20075 1.75764,2.66834 0.56568,2.25385 0.10264,3.12325 -2.98095,5.59699 -2.26705,1.81869 -3.65066,3.78829 -3.65066,5.19681 0,1.24748 -0.8381,3.34133 -1.86244,4.653 -1.02434,1.31167 -2.17977,3.3977 -2.56763,4.63562 -0.38785,1.23791 -3.14975,4.36124 -6.13756,6.94072 -2.9878,2.57948 -5.43237,5.33095 -5.43237,6.11437 0,0.78343 -1.52849,2.8351 -3.39665,4.55928 -3.74442,3.45584 -5.58913,8.62761 -5.59777,15.69374 -0.003,2.50738 -0.56808,5.2501 -1.25558,6.09494 -4.61387,5.66978 -13.91413,7.96448 -19.60692,4.83772 z"
       transform="translate(-3.6614579,-0.91536434)"
       clip-path="url(#clipPath4063)"
       id="path3243"
       style="fill:#0d0d0d;fill-opacity:0.3972603" />
    <rect
       width="324.03894"
       height="446.69775"
       x="0"
       y="0.45709753"
       transform="translate(-1.9328338,-7.1378536)"
       clip-path="url(#clipPath4059)"
       id="rect4055"
       style="fill:none;stroke:none" />
  </g>
</svg>
