<?xml version="1.0" encoding="UTF-8" standalone="no"?>
<!-- Created with Inkscape (http://www.inkscape.org/) -->

<svg
   xmlns:dc="http://purl.org/dc/elements/1.1/"
   xmlns:cc="http://creativecommons.org/ns#"
   xmlns:rdf="http://www.w3.org/1999/02/22-rdf-syntax-ns#"
   xmlns:svg="http://www.w3.org/2000/svg"
   xmlns="http://www.w3.org/2000/svg"
   xmlns:sodipodi="http://sodipodi.sourceforge.net/DTD/sodipodi-0.dtd"
   xmlns:inkscape="http://www.inkscape.org/namespaces/inkscape"
   id="svg2"
   version="1.1"
   inkscape:version="0.48.4 r9939"
   sodipodi:docname="divination.svg"
   width="138.5137"
   height="44.013699">
  <metadata
     id="metadata8">
    <rdf:RDF>
      <cc:Work
         rdf:about="">
        <dc:format>image/svg+xml</dc:format>
        <dc:type
           rdf:resource="http://purl.org/dc/dcmitype/StillImage" />
        <dc:title />
      </cc:Work>
    </rdf:RDF>
  </metadata>
  <defs
     id="defs6">
    <clipPath
       clipPathUnits="userSpaceOnUse"
       id="clipPath3774">
      <rect
         style="fill:none;stroke:#000000;stroke-width:1px;stroke-linecap:butt;stroke-linejoin:miter;stroke-opacity:1"
         id="rect3776"
         width="335.28082"
         height="432.36987"
         x="-51.780819"
         y="25.794519" />
    </clipPath>
    <clipPath
       clipPathUnits="userSpaceOnUse"
       id="clipPath3782">
      <rect
         style="fill:none"
         id="rect3784"
         width="321.04111"
         height="434.95889"
         x="60.596588"
         y="20.048922" />
    </clipPath>
    <filter
       id="filter7476"
       inkscape:label="Drop Shadow"
       color-interpolation-filters="sRGB">
      <feFlood
         id="feFlood7478"
         flood-opacity="0.5"
         flood-color="rgb(0,0,0)"
         result="flood" />
      <feComposite
         id="feComposite7480"
         in2="SourceGraphic"
         in="flood"
         operator="in"
         result="composite1" />
      <feGaussianBlur
         id="feGaussianBlur7482"
         stdDeviation="1"
         result="blur" />
      <feOffset
         id="feOffset7484"
         dx="0"
         dy="1"
         result="offset" />
      <feComposite
         id="feComposite7486"
         in2="offset"
         in="SourceGraphic"
         operator="over"
         result="composite2" />
    </filter>
    <clipPath
       clipPathUnits="userSpaceOnUse"
       id="clipPath7838">
      <rect
         style="fill:#4e4e4e;fill-opacity:1;stroke:none"
         id="rect7840"
         width="139.14467"
         height="43.814114"
         x="1.9506264"
         y="1.2886519" />
    </clipPath>
    <clipPath
       clipPathUnits="userSpaceOnUse"
       id="clipPath7842">
      <rect
         style="fill:#4e4e4e;fill-opacity:1;stroke:none"
         id="rect7844"
         width="138.5137"
         height="44.013699"
         x="39.762177"
         y="131.93288" />
    </clipPath>
    <clipPath
       clipPathUnits="userSpaceOnUse"
       id="clipPath7846">
      <rect
         style="fill:#4e4e4e;fill-opacity:1;stroke:none"
         id="rect7848"
         width="138.5137"
         height="44.013699"
         x="39.762177"
         y="131.93288" />
    </clipPath>
    <clipPath
       clipPathUnits="userSpaceOnUse"
       id="clipPath7850">
      <rect
         style="fill:#4e4e4e;fill-opacity:1;stroke:none"
         id="rect7852"
         width="138.5137"
         height="44.013699"
         x="1.9417809"
         y="1.2945222" />
    </clipPath>
  </defs>
  <sodipodi:namedview
     pagecolor="#ffffff"
     bordercolor="#666666"
     borderopacity="1"
     objecttolerance="10"
     gridtolerance="10"
     guidetolerance="10"
     inkscape:pageopacity="0"
     inkscape:pageshadow="2"
     inkscape:window-width="1671"
     inkscape:window-height="816"
     id="namedview4"
     showgrid="false"
     fit-margin-top="0"
     fit-margin-left="0"
     fit-margin-right="0"
     fit-margin-bottom="0"
     inkscape:zoom="4.369845"
     inkscape:cx="31.167197"
     inkscape:cy="36.302918"
     inkscape:window-x="65"
     inkscape:window-y="24"
     inkscape:window-maximized="0"
     inkscape:current-layer="text5351" />
  <rect
     style="fill:none"
     id="rect3778"
     width="322.3356"
     height="432.36987"
     x="-39.114914"
     y="-130.92117"
     clip-path="url(#clipPath7850)"
     transform="translate(-1.9417809,-1.2945221)" />
  <flowRoot
     xml:space="preserve"
     id="flowRoot3824"
     style="font-size:40px;font-style:normal;font-weight:normal;line-height:125%;letter-spacing:0px;word-spacing:0px;fill:#000000;fill-opacity:1;stroke:none;font-family:Sans"
     transform="translate(-39.762176,-131.93287)"
     clip-path="url(#clipPath7846)"><flowRegion
       id="flowRegion3826"><rect
         id="rect3828"
         width="264.72946"
         height="75.082191"
         x="24.59589"
         y="127.8747" /></flowRegion><flowPara
       id="flowPara3830" /></flowRoot>  <flowRoot
     xml:space="preserve"
     id="flowRoot3832"
     style="font-size:40px;font-style:normal;font-variant:normal;font-weight:normal;font-stretch:normal;line-height:125%;letter-spacing:0px;word-spacing:0px;fill:#000000;fill-opacity:1;stroke:none;font-family:Lilly;-inkscape-font-specification:Lilly"
     transform="translate(-39.762176,-131.93287)"
     clip-path="url(#clipPath7842)"><flowRegion
       id="flowRegion3834"><rect
         id="rect3836"
         width="278.96918"
         height="91.910957"
         x="26.537672"
         y="105.2206"
         style="font-style:normal;font-variant:normal;font-weight:normal;font-stretch:normal;font-family:Lilly;-inkscape-font-specification:Lilly" /></flowRegion><flowPara
       id="flowPara3838" /></flowRoot>  <g
     transform="matrix(0.99546535,0,0,1.0045553,-1.9417809,-1.2945221)"
     clip-path="url(#clipPath7838)"
     style="font-size:37.57804108px;font-style:normal;font-variant:normal;font-weight:normal;font-stretch:normal;line-height:125%;letter-spacing:0px;word-spacing:0px;fill:#4e4e4e;fill-opacity:1;stroke:none;font-family:LeckerliOne;-inkscape-font-specification:LeckerliOne"
     id="text5351">
    <path
       d="m 7.5835712,7.7830479 c -0.4199996,0 -1.2000005,0.1000004 -1.68,0.48 l -0.58,4.7400001 c -0.4399996,0.839999 -0.64,1.360001 -0.64,2.04 0,1.639998 1.1800018,2.38 2.98,2.38 1.2799987,0 2.1200005,-0.600001 2.6799998,-1.38 -0.1,0.579999 -0.24,1.160001 -0.3799998,1.72 -3.039997,0.719999 -5.5,0.840002 -5.5,2.56 0,1.499998 1.4600017,2.66 3.18,2.66 2.8999968,0 3.5200008,-1.800002 4.1599998,-3.94 2.779997,-1.259999 4.86,-3.960002 4.86,-5.5 0,-0.46 -0.08,-0.7 -0.28,-0.7 -0.499999,0 -1.480002,1.980002 -3.8,3.72 0.819999,-2.699997 1.72,-6.000001 1.72,-7.0600001 0,-0.4799995 -0.740001,-1.98 -1.54,-1.98 -0.26,0 -0.6,0.1200005 -0.78,0.56 -0.22,0.5399995 -1.1,3.5200021 -1.52,5.3200001 -0.359999,1.059999 -0.8200009,1.88 -1.8599998,1.88 -0.6999993,0 -0.9,-0.3 -0.9,-0.72 0,-1.879998 0.94,-3.260002 0.94,-4.8400001 0,-1.0199989 -0.120001,-1.94 -1.06,-1.94 m 0.04,13.6600001 c -0.4999995,0 -1.32,-0.300001 -1.32,-0.88 0,-0.48 1.1200019,-0.38 3.02,-0.76 -0.4399996,0.979999 -1.0000007,1.64 -1.7,1.64"
       style="font-size:20px"
       id="path5683" />
    <path
       d="m 21.046696,7.9030479 c -3.379996,0 -5.48,2.8000031 -5.48,5.8200001 0,2.019998 1.300003,3.94 4.34,3.94 1.579999,0 2.900001,-0.780001 3.84,-1.86 0.4,0.08 0.820001,0.12 1.28,0.12 1.339999,0 2.5,-0.800002 2.5,-2.38 0,-0.46 -0.08,-0.72 -0.28,-0.72 -0.499999,0 -0.780001,1.22 -2.28,1.22 l -0.12,0 c 0.3,-0.699999 0.46,-1.420001 0.46,-2.08 0,-1.239999 -0.640001,-2.1800001 -1.94,-2.1800001 -1.719998,0 -2.64,1.3800011 -2.64,2.5600001 0,1.199999 0.520001,2.160001 1.42,2.78 -0.419999,0.26 -0.92,0.4 -1.5,0.4 -1.439998,0 -2.14,-0.940001 -2.14,-2.12 0,-2.339998 1.660002,-4.0000001 3.96,-4.0000001 1.159999,0 1.56,-0.1400001 1.56,-0.32 0,-0.5799994 -1.500001,-1.18 -2.98,-1.18 m 2,4.2600001 c 0,-0.32 0.18,-0.76 0.42,-0.76 0.32,0 0.44,0.32 0.44,0.66 0,0.4 -0.1,0.92 -0.34,1.42 -0.339999,-0.34 -0.52,-0.800001 -0.52,-1.32"
       style="font-size:20px"
       id="path5685" />
    <path
       d="m 29.326071,7.7830479 c -0.419999,0 -1.3,0.1000004 -1.78,0.48 l -0.58,4.9200001 c -0.439999,0.839999 -0.64,1.360001 -0.64,2.04 0,1.639998 1.280002,2.38 3.08,2.38 1.459999,0 2.360001,-0.820001 2.9,-1.8 0.1,0.999999 0.460001,1.76 1.46,1.76 2.179998,0 4.42,-2.280002 4.42,-4.02 0,-0.46 -0.08,-0.7 -0.28,-0.7 -0.379999,0 -2.160001,2.42 -2.94,2.42 -0.16,0 -0.22,-0.12 -0.22,-0.34 0,-1.399999 0.86,-3.820002 0.86,-5.9000001 0,-0.8199991 -0.100001,-1.3 -0.78,-1.3 -1.439998,0 -2.08,0.5000009 -2.08,1.34 0,0.3199997 0,1.3200001 0.06,1.7400001 -0.22,1.639998 -0.980001,4.66 -2.46,4.66 -0.699999,0 -0.9,-0.3 -0.9,-0.72 0,-1.879998 0.94,-3.440002 0.94,-5.0200001 0,-1.0199989 -0.120001,-1.94 -1.06,-1.94"
       style="font-size:20px"
       id="path5687" />
    <path
       d="m 43.950134,8.6030479 c -0.56,0 -1.300001,0.76 -2.26,0.76 -0.3,0 -0.540001,-0.02 -0.76,-0.1 -0.14,-0.6399993 -0.760001,-2.04 -1.88,-2.04 -0.999999,0 -1.44,0.5000008 -1.44,1.28 0,0.4999995 0.38,1.0800005 0.92,1.5800001 -0.839999,1.639998 -1.04,2.960003 -1.04,5.78 0,1.219999 0.22,1.96 0.88,1.96 1.339998,0 1.86,-0.8 1.86,-1.1 0,-0.559999 -0.12,-1.660001 -0.12,-2.74 0,-0.659999 0.3,-1.800001 0.54,-2.8 0.16,0.02 0.34,0.04 0.5,0.04 0.219999,0 1.02,-0.06 1.28,-0.18 -0.56,1.119999 -0.94,2.580001 -0.94,3.96 0,1.339999 0.600001,2.56 1.86,2.56 2.179997,0 3.98,-2.280002 3.98,-4.02 0,-0.46 -0.08,-0.7 -0.28,-0.7 -0.38,0 -2.160001,2.42 -2.94,2.42 -0.16,0 -0.22,-0.12 -0.22,-0.34 0,-0.719999 0.7,-2.540002 1.18,-4.62 -0.24,-0.7399993 -0.680001,-1.7000001 -1.12,-1.7000001"
       style="font-size:20px"
       id="path5689" />
    <path
       d="m 60.938571,8.0630479 c -0.399999,-0.1 -0.84,-0.12 -1.2,-0.12 -1.659998,0 -3.100001,1.0400011 -4.02,2.1400001 -1.019999,1.239999 -1.48,2.900001 -1.48,4.42 0,1.919998 1.280002,3.16 3.14,3.16 1.819998,0 2.860001,-0.800001 3.56,-1.9 0.22,1.099999 0.680001,1.8 1.44,1.8 2.099998,0 4.6,-2.280002 4.6,-4.02 0,-0.46 -0.16,-0.76 -0.36,-0.76 -0.359999,0 -2.220001,2.48 -3.04,2.48 -0.32,0 -0.46,-0.540001 -0.46,-1.38 0,-1.219999 0.440001,-4.2600019 0.94,-6.0600001 0.719999,-1.0399989 1.44,-1.8600014 1.48,-3.32 0,-0.4599995 -0.660001,-1.92 -1.5,-1.92 -0.999999,0 -2,2.4800032 -2.64,5.6 l -0.46,-0.12 m -0.18,5.2000001 c -0.499999,1.619998 -1.540001,2.26 -2.44,2.26 -0.899999,0 -1.14,-0.760001 -1.14,-1.54 0,-2.679997 2.060002,-4.3200004 4,-4.6800001 -0.24,1.3399991 -0.4,2.7200011 -0.42,3.9600001"
       style="font-size:20px;fill:#0e8ec9;fill-opacity:1"
       id="path5691" />
    <path
       d="m 73.619196,17.563048 c 2.179998,0 4.42,-2.280002 4.42,-4.02 0,-0.46 -0.08,-0.7 -0.28,-0.7 -0.379999,0 -2.160001,2.42 -2.94,2.42 -0.16,0 -0.22,-0.12 -0.22,-0.34 0,-0.779999 0.84,-2.760002 0.84,-4.7 0,-1.4199986 -0.960002,-2.3000001 -2.76,-2.3000001 -1.559998,0 -2.56,0.900001 -3.16,1.9 l 0.3,-1.44 c 0.759999,-1.4599985 1.62,-2.4200014 1.62,-3.86 0,-0.4599995 -0.400001,-1.96 -1.22,-1.96 -0.26,0 -0.58,0.1200005 -0.8,0.54 -3.019997,5.8799942 -3.14,9.4400031 -3.14,12.7600001 0,1.219999 0.440001,1.94 1,1.94 0.44,0 0.820001,-0.26 1.24,-0.5 0.54,-0.3 0.7,-0.840001 0.7,-1.48 0,-0.52 -0.06,-1.160001 -0.12,-1.78 0.26,-1.639998 1.540001,-3.98 2.64,-3.98 0.699999,0 0.9,0.3 0.9,0.72 0,1.179999 -0.62,2.120002 -0.62,4.22 0,1.339999 0.340001,2.56 1.6,2.56"
       style="font-size:20px;fill:#0e8ec9;fill-opacity:1"
       id="path5693" />
    <path
       d="m 83.633884,8.0630479 c -0.42,-0.08 -0.820001,-0.12 -1.2,-0.12 -1.659999,0 -3.100001,1.0400011 -4.02,2.1400001 -1.019999,1.239999 -1.48,2.900001 -1.48,4.42 0,1.919998 1.280002,3.16 3.14,3.16 1.839998,0 2.88,-0.820001 3.58,-1.96 0.219999,1.099999 0.66,1.86 1.42,1.86 2.099998,0 4.6,-2.280002 4.6,-4.02 0,-0.46 -0.160001,-0.76 -0.36,-0.76 -0.36,0 -2.220001,2.48 -3.04,2.48 -0.3,0 -0.42,-0.720001 -0.42,-1.64 0,-1.019999 0.02,-1.840001 0.16,-2.6 0.299999,-0.5 0.56,-0.980001 0.82,-1.5800001 0,-0.6599993 -1.100001,-1.76 -1.92,-1.76 -0.28,0 -0.500001,0.2200004 -0.68,0.58 -0.14,-0.08 -0.340001,-0.14 -0.6,-0.2 m -2.62,7.4600001 c -0.899999,0 -1.14,-0.760001 -1.14,-1.54 0,-2.699997 2.080002,-4.3200004 4.02,-4.6800001 -0.3,1.2799991 -0.38,3.0200011 -0.4,3.8400001 -0.48,1.699998 -1.560001,2.38 -2.48,2.38"
       style="font-size:20px;fill:#0e8ec9;fill-opacity:1"
       id="path5695" />
    <path
       d="m 95.434509,8.6030479 c -0.56,0 -1.300001,0.76 -2.26,0.76 -0.3,0 -0.540001,-0.02 -0.76,-0.1 -0.14,-0.6399993 -0.760001,-2.04 -1.88,-2.04 -0.999999,0 -1.44,0.5000008 -1.44,1.28 0,0.4999995 0.38,1.0800005 0.92,1.5800001 -0.839999,1.639998 -1.04,2.960003 -1.04,5.78 0,1.219999 0.22,1.96 0.88,1.96 1.339998,0 1.86,-0.8 1.86,-1.1 0,-0.559999 -0.12,-1.660001 -0.12,-2.74 0,-0.659999 0.3,-1.800001 0.54,-2.8 0.16,0.02 0.34,0.04 0.5,0.04 0.219999,0 1.02,-0.06 1.28,-0.18 -0.56,1.119999 -0.94,2.580001 -0.94,3.96 0,1.339999 0.600001,2.56 1.86,2.56 2.179997,0 3.98,-2.280002 3.98,-4.02 0,-0.46 -0.08,-0.7 -0.28,-0.7 -0.38,0 -2.160001,2.42 -2.94,2.42 -0.16,0 -0.22,-0.12 -0.22,-0.34 0,-0.719999 0.7,-2.540002 1.18,-4.62 -0.24,-0.7399993 -0.680001,-1.7000001 -1.12,-1.7000001"
       style="font-size:20px;fill:#0e8ec9;fill-opacity:1"
       id="path5697" />
    <path
       d="m 105.93513,13.983048 0,-0.04 c 0.34,-1.359999 1.28,-3.18 2.08,-3.18 0.6,0 0.76,0.28 0.76,0.66 0,1.179999 -0.44,2.160001 -0.44,3.52 0,1.319999 0.3,2.62 1.44,2.62 2.18,0 4.42,-2.280002 4.42,-4.02 0,-0.46 -0.08,-0.7 -0.28,-0.7 -0.38,0 -2.16,2.42 -2.94,2.42 -0.12,0 -0.16,-0.1 -0.16,-0.26 0,-0.659999 0.78,-2.500002 0.78,-4.3 0,-1.2799988 -0.76,-2.0800001 -2.2,-2.0800001 -1.33999,0 -2.32,0.7000009 -2.98,1.5200001 l 0,-0.2200001 c 0,-1.1799988 -1.1,-2 -2.22,-2 -0.94,0 -1.7,0.5200007 -2.26,1.2 -0.22,-0.6199993 -0.82,-1.6 -1.46,-1.6 -0.26,0 -0.519997,0.1600004 -0.779996,0.56 -1.559999,2.3799981 -1.58,4.4000031 -1.58,7.7800001 0,1.219999 0.22,1.96 0.88,1.96 0.14,0 0.3,-0.04 0.46,-0.1 1.339996,-0.52 1.699996,-0.920001 1.699996,-1.42 0,-0.559999 -0.42,-1.240001 -0.42,-2.32 0,-1.299999 1.42,-3.92 2.26,-3.92 0.46,0 0.62,0.24 0.62,0.68 0,0.839999 -0.3,2.820002 -0.3,5.12 0,1.219999 0.22,1.96 0.88,1.96 0.14,0 0.3,-0.04 0.46,-0.1 1.34,-0.52 1.7,-0.920001 1.7,-1.42 0,-0.559999 -0.42,-1.240001 -0.42,-2.32"
       style="font-size:20px;fill:#0e8ec9;fill-opacity:1"
       id="path5699" />
    <path
       d="m 119.80576,8.0630479 c -0.42,-0.08 -0.82,-0.12 -1.2,-0.12 -1.66,0 -3.1,1.0400011 -4.02,2.1400001 -1.02,1.239999 -1.48,2.900001 -1.48,4.42 0,1.919998 1.28,3.16 3.14,3.16 1.84,0 2.88,-0.820001 3.58,-1.96 0.22,1.099999 0.66,1.86 1.42,1.86 2.1,0 4.6,-2.280002 4.6,-4.02 0,-0.46 -0.16,-0.76 -0.36,-0.76 -0.36,0 -2.22,2.48 -3.04,2.48 -0.3,0 -0.42,-0.720001 -0.42,-1.64 0,-1.019999 0.02,-1.840001 0.16,-2.6 0.3,-0.5 0.56,-0.980001 0.82,-1.5800001 0,-0.6599993 -1.1,-1.76 -1.92,-1.76 -0.28,0 -0.5,0.2200004 -0.68,0.58 -0.14,-0.08 -0.34,-0.14 -0.6,-0.2 m -2.62,7.4600001 c -0.9,0 -1.14,-0.760001 -1.14,-1.54 0,-2.699997 2.08,-4.3200004 4.02,-4.6800001 -0.3,1.2799991 -0.38,3.0200011 -0.4,3.8400001 -0.48,1.699998 -1.56,2.38 -2.48,2.38"
       style="font-size:20px;fill:#0e8ec9;fill-opacity:1"
       id="path5701" />
    <path
       d="m 11.563571,33.063048 c -0.399999,-0.1 -0.84,-0.12 -1.2,-0.12 -1.6599982,0 -3.1000008,1.040001 -4.0199998,2.14 -1.019999,1.239999 -1.48,2.900001 -1.48,4.42 0,1.919998 1.2800018,3.16 3.14,3.16 1.8199981,0 2.8600008,-0.800001 3.5599998,-1.9 0.22,1.099999 0.680001,1.8 1.44,1.8 2.099998,0 4.6,-2.280002 4.6,-4.02 0,-0.46 -0.16,-0.76 -0.36,-0.76 -0.359999,0 -2.220001,2.48 -3.04,2.48 -0.32,0 -0.46,-0.540001 -0.46,-1.38 0,-1.219999 0.440001,-4.260002 0.94,-6.06 0.719999,-1.039999 1.44,-1.860002 1.48,-3.32 0,-0.46 -0.660001,-1.92 -1.5,-1.92 -0.999999,0 -2,2.480003 -2.64,5.6 l -0.46,-0.12 m -0.18,5.2 c -0.499999,1.619998 -1.5400007,2.26 -2.4399998,2.26 -0.8999991,0 -1.14,-0.760001 -1.14,-1.54 0,-2.679997 2.0600019,-4.32 3.9999998,-4.68 -0.24,1.339999 -0.4,2.720001 -0.42,3.96"
       style="font-size:20px;stroke:none;stroke-opacity:1;fill:#0e8ec9;fill-opacity:1"
       id="path5703" />
    <path
       d="m 19.004196,42.563048 c 2.179998,0 4.42,-2.280002 4.42,-4.02 0,-0.46 -0.08,-0.7 -0.28,-0.7 -0.379999,0 -2.160001,2.42 -2.94,2.42 -0.379999,0 -0.7,-0.22 -0.7,-0.62 0,-1.079999 0.92,-3.360002 0.96,-5.16 0,-0.46 -0.340001,-1.92 -1.18,-1.92 -1.459998,0 -2.28,3.880002 -2.28,6.26 0,2.039998 0.440002,3.74 2,3.74 m 0.82,-11.62 c 1.039999,0 2.38,-0.640002 2.38,-2.28 0,-0.5 -0.620001,-2.16 -1.48,-2.16 -0.879999,0 -1.44,1.780001 -1.44,2.52 0,1.099999 0.54,1.92 0.54,1.92"
       style="font-size:20px;stroke:none;stroke-opacity:1;fill:#0e8ec9;fill-opacity:1"
       id="path5705" />
    <path
       d="m 24.724509,42.663048 c 1.239998,0 2.700001,-1.440002 3.92,-3.04 0.499999,0.739999 1.240001,1.24 2.26,1.24 1.339998,0 2.5,-0.740002 2.5,-2.32 0,-0.46 -0.08,-0.72 -0.28,-0.72 -0.5,0 -0.780002,1.22 -2.28,1.22 -0.52,0 -0.860001,-0.440001 -1.08,-1.06 1.159999,-1.779998 1.52,-2.540001 1.52,-3.32 0,-1.359999 -0.840001,-1.68 -1.52,-1.68 -1.719999,0 -2.16,1.380001 -2.16,2.56 0,0.659999 0.06,1.400001 0.24,2.12 -0.66,1.279999 -1.340001,2.34 -1.86,2.34 -0.919999,0 -0.78,-1.560002 -0.88,-3.26 0.279999,-0.979999 0.48,-2.300001 0.48,-2.92 0,-0.599999 -0.360001,-1.04 -1,-1.04 -1.859998,0 -2.06,0.920001 -2.06,2.42 0,1.119999 0.800001,7.46 2.2,7.46"
       style="font-size:20px;stroke:none;stroke-opacity:1;fill:#0e8ec9;fill-opacity:1"
       id="path5707" />
    <path
       d="m 34.902634,42.563048 c 2.179997,0 4.42,-2.280002 4.42,-4.02 0,-0.46 -0.08,-0.7 -0.28,-0.7 -0.38,0 -2.160001,2.42 -2.94,2.42 -0.38,0 -0.7,-0.22 -0.7,-0.62 0,-1.079999 0.92,-3.360002 0.96,-5.16 0,-0.46 -0.340001,-1.92 -1.18,-1.92 -1.459999,0 -2.28,3.880002 -2.28,6.26 0,2.039998 0.440001,3.74 2,3.74 m 0.82,-11.62 c 1.039999,0 2.38,-0.640002 2.38,-2.28 0,-0.5 -0.620001,-2.16 -1.48,-2.16 -0.879999,0 -1.44,1.780001 -1.44,2.52 0,1.099999 0.54,1.92 0.54,1.92"
       style="font-size:20px;stroke:none;stroke-opacity:1;fill:#0e8ec9;fill-opacity:1"
       id="path5709" />
    <path
       d="m 45.642946,42.563048 c 2.179998,0 4.42,-2.280002 4.42,-4.02 0,-0.46 -0.08,-0.7 -0.28,-0.7 -0.379999,0 -2.160001,2.42 -2.94,2.42 -0.16,0 -0.22,-0.12 -0.22,-0.34 0,-0.779999 0.84,-2.760002 0.84,-4.7 0,-1.419999 -0.960002,-2.3 -2.76,-2.3 -1.059999,0 -1.82,0.420001 -2.36,0.98 -0.26,-0.599999 -0.8,-1.38 -1.36,-1.38 -0.26,0 -0.52,0.16 -0.78,0.56 -1.559998,2.359998 -1.58,4.380003 -1.58,7.78 0,1.219999 0.220001,1.96 0.88,1.96 0.14,0 0.3,-0.04 0.46,-0.1 1.339999,-0.52 1.7,-0.920001 1.7,-1.42 0,-0.559999 -0.42,-1.240001 -0.42,-2.32 l 0,-0.14 c 0.32,-1.619998 1.460001,-3.78 2.52,-3.78 0.699999,0 0.9,0.3 0.9,0.72 0,1.179999 -0.62,2.120002 -0.62,4.22 0,1.339999 0.340001,2.56 1.6,2.56"
       style="font-size:20px;stroke:none;stroke-opacity:1;fill:#0e8ec9;fill-opacity:1"
       id="path5711" />
    <path
       d="m 55.665134,33.063048 c -0.42,-0.08 -0.820001,-0.12 -1.2,-0.12 -1.659999,0 -3.100001,1.040001 -4.02,2.14 -1.019999,1.239999 -1.48,2.900001 -1.48,4.42 0,1.919998 1.280002,3.16 3.14,3.16 1.839998,0 2.88,-0.820001 3.58,-1.96 0.219999,1.099999 0.66,1.86 1.42,1.86 2.099998,0 4.6,-2.280002 4.6,-4.02 0,-0.46 -0.160001,-0.76 -0.36,-0.76 -0.36,0 -2.220001,2.48 -3.04,2.48 -0.3,0 -0.42,-0.720001 -0.42,-1.64 0,-1.019999 0.02,-1.840001 0.16,-2.6 0.299999,-0.5 0.56,-0.980001 0.82,-1.58 0,-0.659999 -1.100001,-1.76 -1.92,-1.76 -0.28,0 -0.500001,0.22 -0.68,0.58 -0.14,-0.08 -0.340001,-0.14 -0.6,-0.2 m -2.62,7.46 c -0.899999,0 -1.14,-0.760001 -1.14,-1.54 0,-2.699997 2.080002,-4.32 4.02,-4.68 -0.3,1.279999 -0.38,3.020001 -0.4,3.84 -0.48,1.699998 -1.560001,2.38 -2.48,2.38"
       style="font-size:20px;stroke:none;stroke-opacity:1;fill:#0e8ec9;fill-opacity:1"
       id="path5713" />
    <path
       d="m 61.025759,33.023048 c -0.46,0.539999 -0.52,0.860001 -0.52,1.5 0,0.12 0.08,0.2 0.24,0.2 l 0.9,0 c -0.3,1.319999 -0.48,2.720001 -0.48,3.92 0,2.179998 0.540001,3.92 1.86,3.92 2.179997,0 5.02,-2.280002 5.02,-4.02 0,-0.46 -0.08,-0.7 -0.28,-0.7 -0.16,0 -0.420001,0.18 -0.72,0.58 -0.64,0.839999 -2.340001,1.84 -2.82,1.84 -0.32,0 -0.46,-0.540001 -0.46,-1.38 0,-0.859999 0.16,-2.720002 0.42,-4.26 0.579999,0 1.68,0.1 2,0.1 0.299999,0 0.56,-1.12 0.56,-1.38 0,-0.24 -0.02,-0.32 -0.22,-0.32 -0.44,0 -1.060001,-0.02 -1.98,-0.04 l 0.82,-1.44 c -0.2,-0.839999 -0.440001,-1.62 -1.3,-1.62 -0.72,0 -1.400001,1.280002 -1.96,3.08 -0.44,0.02 -0.820001,0.02 -1.08,0.02"
       style="font-size:20px;stroke:none;stroke-opacity:1;fill:#0e8ec9;fill-opacity:1"
       id="path5715" />
    <path
       d="m 69.433884,42.563048 c 2.179997,0 4.42,-2.280002 4.42,-4.02 0,-0.46 -0.08,-0.7 -0.28,-0.7 -0.38,0 -2.160001,2.42 -2.94,2.42 -0.38,0 -0.7,-0.22 -0.7,-0.62 0,-1.079999 0.92,-3.360002 0.96,-5.16 0,-0.46 -0.340001,-1.92 -1.18,-1.92 -1.459999,0 -2.28,3.880002 -2.28,6.26 0,2.039998 0.440001,3.74 2,3.74 m 0.82,-11.62 c 1.039999,0 2.38,-0.640002 2.38,-2.28 0,-0.5 -0.620001,-2.16 -1.48,-2.16 -0.879999,0 -1.44,1.780001 -1.44,2.52 0,1.099999 0.54,1.92 0.54,1.92"
       style="font-size:20px;stroke:none;stroke-opacity:1;fill:#0e8ec9;fill-opacity:1"
       id="path5717" />
    <path
       d="m 78.234196,32.903048 c -3.379996,0 -5.48,2.800003 -5.48,5.82 0,2.019998 1.300003,3.94 4.34,3.94 1.579999,0 2.900001,-0.780001 3.84,-1.86 0.4,0.08 0.820001,0.12 1.28,0.12 1.339999,0 2.5,-0.800002 2.5,-2.38 0,-0.46 -0.08,-0.72 -0.28,-0.72 -0.499999,0 -0.780001,1.22 -2.28,1.22 l -0.12,0 c 0.3,-0.699999 0.46,-1.420001 0.46,-2.08 0,-1.239999 -0.640001,-2.18 -1.94,-2.18 -1.719998,0 -2.64,1.380001 -2.64,2.56 0,1.199999 0.520001,2.160001 1.42,2.78 -0.419999,0.26 -0.92,0.4 -1.5,0.4 -1.439998,0 -2.14,-0.940001 -2.14,-2.12 0,-2.339998 1.660002,-4 3.96,-4 1.159999,0 1.56,-0.14 1.56,-0.32 0,-0.579999 -1.500001,-1.18 -2.98,-1.18 m 2,4.26 c 0,-0.32 0.18,-0.76 0.42,-0.76 0.32,0 0.44,0.32 0.44,0.66 0,0.4 -0.1,0.92 -0.34,1.42 -0.339999,-0.34 -0.52,-0.800001 -0.52,-1.32"
       style="font-size:20px;stroke:none;stroke-opacity:1;fill:#0e8ec9;fill-opacity:1"
       id="path5719" />
    <path
       d="m 91.033571,42.563048 c 2.179998,0 4.42,-2.280002 4.42,-4.02 0,-0.46 -0.08,-0.7 -0.28,-0.7 -0.379999,0 -2.160001,2.42 -2.94,2.42 -0.16,0 -0.22,-0.12 -0.22,-0.34 0,-0.779999 0.84,-2.760002 0.84,-4.7 0,-1.419999 -0.960002,-2.3 -2.76,-2.3 -1.059999,0 -1.82,0.420001 -2.36,0.98 -0.26,-0.599999 -0.8,-1.38 -1.36,-1.38 -0.26,0 -0.52,0.16 -0.78,0.56 -1.559998,2.359998 -1.58,4.380003 -1.58,7.78 0,1.219999 0.220001,1.96 0.88,1.96 0.14,0 0.3,-0.04 0.46,-0.1 1.339999,-0.52 1.7,-0.920001 1.7,-1.42 0,-0.559999 -0.42,-1.240001 -0.42,-2.32 l 0,-0.14 c 0.32,-1.619998 1.460001,-3.78 2.52,-3.78 0.699999,0 0.9,0.3 0.9,0.72 0,1.179999 -0.62,2.120002 -0.62,4.22 0,1.339999 0.340001,2.56 1.6,2.56"
       style="font-size:20px;stroke:none;stroke-opacity:1;fill:#0e8ec9;fill-opacity:1"
       id="path5721" />
    <path
       d="m 102.78357,33.023048 c -0.46,0.539999 -0.52,0.860001 -0.52,1.5 0,0.12 0.08,0.2 0.24,0.2 l 0.9,0 c -0.3,1.319999 -0.48,2.720001 -0.48,3.92 0,2.179998 0.54,3.92 1.86,3.92 2.18,0 5.02,-2.280002 5.02,-4.02 0,-0.46 -0.08,-0.7 -0.28,-0.7 -0.16,0 -0.42,0.18 -0.72,0.58 -0.64,0.839999 -2.34,1.84 -2.82,1.84 -0.32,0 -0.46,-0.540001 -0.46,-1.38 0,-0.859999 0.16,-2.720002 0.42,-4.26 0.58,0 1.68,0.1 2,0.1 0.3,0 0.56,-1.12 0.56,-1.38 0,-0.24 -0.02,-0.32 -0.22,-0.32 -0.44,0 -1.06,-0.02 -1.98,-0.04 l 0.82,-1.44 c -0.2,-0.839999 -0.44,-1.62 -1.3,-1.62 -0.72,0 -1.4,1.280002 -1.96,3.08 -0.44,0.02 -0.82,0.02 -1.08,0.02"
       style="font-size:20px"
       id="path5723" />
    <path
       d="m 114.1717,32.903048 c -3.38,0 -5.48,2.800003 -5.48,5.82 0,2.019998 1.3,3.94 4.34,3.94 1.57999,0 2.9,-0.780001 3.84,-1.86 0.4,0.08 0.82,0.12 1.28,0.12 1.33999,0 2.5,-0.800002 2.5,-2.38 0,-0.46 -0.08,-0.72 -0.28,-0.72 -0.5,0 -0.78001,1.22 -2.28,1.22 l -0.12,0 c 0.3,-0.699999 0.46,-1.420001 0.46,-2.08 0,-1.239999 -0.64001,-2.18 -1.94,-2.18 -1.72,0 -2.64,1.380001 -2.64,2.56 0,1.199999 0.52,2.160001 1.42,2.78 -0.42,0.26 -0.92,0.4 -1.5,0.4 -1.44,0 -2.14,-0.940001 -2.14,-2.12 0,-2.339998 1.66,-4 3.96,-4 1.16,0 1.56,-0.14 1.56,-0.32 0,-0.579999 -1.50001,-1.18 -2.98,-1.18 m 2,4.26 c 0,-0.32 0.18,-0.76 0.42,-0.76 0.32,0 0.44,0.32 0.44,0.66 0,0.4 -0.1,0.92 -0.34,1.42 -0.34,-0.34 -0.52,-0.800001 -0.52,-1.32"
       style="font-size:20px"
       id="path5725" />
    <path
       d="m 125.03107,32.903048 c -3.38,0 -5.48,2.800003 -5.48,5.82 0,2.019998 1.3,3.94 4.34,3.94 1.58,0 2.9,-0.780001 3.84,-1.86 0.4,0.08 0.82,0.12 1.28,0.12 1.34,0 2.5,-0.800002 2.5,-2.38 0,-0.46 -0.08,-0.72 -0.28,-0.72 -0.5,0 -0.78,1.22 -2.28,1.22 l -0.12,0 c 0.3,-0.699999 0.46,-1.420001 0.46,-2.08 0,-1.239999 -0.64,-2.18 -1.94,-2.18 -1.72,0 -2.64,1.380001 -2.64,2.56 0,1.199999 0.52,2.160001 1.42,2.78 -0.42,0.26 -0.92,0.4 -1.5,0.4 -1.44,0 -2.14,-0.940001 -2.14,-2.12 0,-2.339998 1.66,-4 3.96,-4 1.16,0 1.56,-0.14 1.56,-0.32 0,-0.579999 -1.5,-1.18 -2.98,-1.18 m 2,4.26 c 0,-0.32 0.18,-0.76 0.42,-0.76 0.32,0 0.44,0.32 0.44,0.66 0,0.4 -0.1,0.92 -0.34,1.42 -0.34,-0.34 -0.52,-0.800001 -0.52,-1.32"
       style="font-size:20px"
       id="path5727" />
    <path
       d="m 134.97045,42.563048 c 2.17999,0 4.32,-2.280002 4.32,-4.02 0,-0.46 -0.08,-0.7 -0.28,-0.7 -0.16,0 -0.42,0.18 -0.72,0.58 -0.7,0.899999 -1.60001,1.82 -3.02,1.82 -1,0 -1.72,-0.680002 -1.72,-2.16 l 0,-0.8 c 2.49999,-3.259997 5.56,-5.440003 5.56,-7.9 0,-1.119999 -0.7,-1.78 -1.84,-1.78 -4.12,0 -6.56,6.080005 -6.56,10.98 0,2.859997 2.06,3.98 4.26,3.98 m 1.64,-13 c 0.24,0 0.34,0.14 0.34,0.44 0,1.239999 -1.34001,2.020003 -3.14,4.78 0.58,-3.319997 1.94,-5.22 2.8,-5.22"
       style="font-size:20px"
       id="path5729" />
  </g>
</svg>
