<?xml version="1.0" encoding="UTF-8" standalone="no"?>
<!-- Created with Inkscape (http://www.inkscape.org/) -->

<svg
   xmlns:dc="http://purl.org/dc/elements/1.1/"
   xmlns:cc="http://creativecommons.org/ns#"
   xmlns:rdf="http://www.w3.org/1999/02/22-rdf-syntax-ns#"
   xmlns:svg="http://www.w3.org/2000/svg"
   xmlns="http://www.w3.org/2000/svg"
   xmlns:sodipodi="http://sodipodi.sourceforge.net/DTD/sodipodi-0.dtd"
   xmlns:inkscape="http://www.inkscape.org/namespaces/inkscape"
   width="402.75"
   height="27"
   id="svg2"
   version="1.1"
   inkscape:version="0.48.4 r9939"
   sodipodi:docname="fsn.svg">
  <defs
     id="defs4" />
  <sodipodi:namedview
     id="base"
     pagecolor="#ffffff"
     bordercolor="#666666"
     borderopacity="1.0"
     inkscape:pageopacity="0.0"
     inkscape:pageshadow="2"
     inkscape:zoom="1.4"
     inkscape:cx="199.9466"
     inkscape:cy="-135.30619"
     inkscape:document-units="px"
     inkscape:current-layer="layer1"
     showgrid="false"
     inkscape:window-width="1551"
     inkscape:window-height="904"
     inkscape:window-x="369"
     inkscape:window-y="24"
     inkscape:window-maximized="0"
     fit-margin-top="0"
     fit-margin-left="0"
     fit-margin-right="0"
     fit-margin-bottom="0" />
  <metadata
     id="metadata7">
    <rdf:RDF>
      <cc:Work
         rdf:about="">
        <dc:format>image/svg+xml</dc:format>
        <dc:type
           rdf:resource="http://purl.org/dc/dcmitype/StillImage" />
        <dc:title></dc:title>
      </cc:Work>
    </rdf:RDF>
  </metadata>
  <g
     inkscape:label="Layer 1"
     inkscape:groupmode="layer"
     id="layer1"
     transform="translate(-104.28125,-433.86916)">
    <g
       style="font-size:40px;font-style:normal;font-weight:normal;line-height:125%;letter-spacing:0px;word-spacing:0px;fill:#ff0000;fill-opacity:1;stroke:none;font-family:Sans"
       id="flowRoot2985">
      <path
         d="m 104.28125,460.86916 3,0 0,-3 -3,0 0,3 m 8,-16 3,0 0,-3 -3,0 0,3 m -8,8 3,0 0,-3 -3,0 0,3 m 12,-8 3,0 0,-3 -3,0 0,3 m -12,4 3,0 0,-3 -3,0 0,3 m 4,-4 3,0 0,-3 -3,0 0,3 m -4,12 3,0 0,-3 -3,0 0,3 m 8,-4 3,0 0,-3 -3,0 0,3 m 4,0 3,0 0,-3 -3,0 0,3 m -12,-8 3,0 0,-3 -3,0 0,3 m 16,0 3,0 0,-3 -3,0 0,3 m -12,8 3,0 0,-3 -3,0 0,3"
         style="font-variant:normal;font-stretch:normal;fill:#ff0000;font-family:BPdotsUnicaseSquare;-inkscape-font-specification:BPdotsUnicaseSquare"
         id="path3796"
         inkscape:connector-curvature="0" />
      <path
         d="m 128.26562,460.86916 3,0 0,-3 -3,0 0,3 m 8,-24 3,0 0,-3 -3,0 0,3 m 0,24 3,0 0,-3 -3,0 0,3 m -4,-16 3,0 0,-3 -3,0 0,3 m 4,8 3,0 0,-3 -3,0 0,3 m 0,-8 3,0 0,-3 -3,0 0,3 m -8,0 3,0 0,-3 -3,0 0,3 m 16,16 3,0 0,-3 -3,0 0,3 m -8,-4 3,0 0,-3 -3,0 0,3 m 0,-8 3,0 0,-3 -3,0 0,3 m -4,12 3,0 0,-3 -3,0 0,3 m 8,0 3,0 0,-3 -3,0 0,3"
         style="font-variant:normal;font-stretch:normal;fill:#ff0000;font-family:BPdotsUnicaseSquare;-inkscape-font-specification:BPdotsUnicaseSquare"
         id="path3798"
         inkscape:connector-curvature="0" />
      <path
         d="m 156.25,460.86916 3,0 0,-3 -3,0 0,3 m -4,-16 3,0 0,-3 -3,0 0,3 m 4,8 3,0 0,-3 -3,0 0,3 m 0,-4 3,0 0,-3 -3,0 0,3 m 8,-4 3,0 0,-3 -3,0 0,3 m -12,16 3,0 0,-3 -3,0 0,3 m 4,-16 3,0 0,-3 -3,0 0,3 m 4,16 3,0 0,-3 -3,0 0,3 m 0,-12 3,0 0,-3 -3,0 0,3 m 8,-4 3,0 0,-3 -3,0 0,3 m -12,12 3,0 0,-3 -3,0 0,3 m 8,4 3,0 0,-3 -3,0 0,3"
         style="font-variant:normal;font-stretch:normal;fill:#ff0000;font-family:BPdotsUnicaseSquare;-inkscape-font-specification:BPdotsUnicaseSquare"
         id="path3800"
         inkscape:connector-curvature="0" />
      <path
         d="m 176.23437,460.86916 3,0 0,-3 -3,0 0,3 m 12,0 3,0 0,-3 -3,0 0,3 m 0,-8 3,0 0,-3 -3,0 0,3 m -12,-4 3,0 0,-3 -3,0 0,3 m 4,-4 3,0 0,-3 -3,0 0,3 m 4,0 3,0 0,-3 -3,0 0,3 m -4,16 3,0 0,-3 -3,0 0,3 m 4,-8 3,0 0,-3 -3,0 0,3 m 0,8 3,0 0,-3 -3,0 0,3 m 4,-16 3,0 0,-3 -3,0 0,3 m 4,12 3,0 0,-3 -3,0 0,3 m 0,-12 3,0 0,-3 -3,0 0,3 m -12,8 3,0 0,-3 -3,0 0,3"
         style="font-variant:normal;font-stretch:normal;fill:#ff0000;font-family:BPdotsUnicaseSquare;-inkscape-font-specification:BPdotsUnicaseSquare"
         id="path3802"
         inkscape:connector-curvature="0" />
      <path
         d="m 208.21875,460.86916 3,0 0,-3 -3,0 0,3 m -4,-16 3,0 0,-3 -3,0 0,3 m -4,0 3,0 0,-3 -3,0 0,3 m 8,0 3,0 0,-3 -3,0 0,3 m 0,8 3,0 0,-3 -3,0 0,3 m 4,-8 3,0 0,-3 -3,0 0,3 m -4,4 3,0 0,-3 -3,0 0,3 m 8,-4 3,0 0,-3 -3,0 0,3 m -8,12 3,0 0,-3 -3,0 0,3"
         style="font-variant:normal;font-stretch:normal;fill:#ff0000;font-family:BPdotsUnicaseSquare;-inkscape-font-specification:BPdotsUnicaseSquare"
         id="path3804"
         inkscape:connector-curvature="0" />
      <path
         d="m 248.1875,460.86916 3,0 0,-3 -3,0 0,3 m 16,-8 3,0 0,-3 -3,0 0,3 m 0,4 3,0 0,-3 -3,0 0,3 m -16,-8 3,0 0,-3 -3,0 0,3 m 12,-4 3,0 0,-3 -3,0 0,3 m -12,12 3,0 0,-3 -3,0 0,3 m 8,-12 3,0 0,-3 -3,0 0,3 m -8,8 3,0 0,-3 -3,0 0,3 m 0,-8 3,0 0,-3 -3,0 0,3 m 4,4 3,0 0,-3 -3,0 0,3 m 12,12 3,0 0,-3 -3,0 0,3 m 0,-12 3,0 0,-3 -3,0 0,3"
         style="font-variant:normal;font-stretch:normal;fill:#ff0000;font-family:BPdotsUnicaseSquare;-inkscape-font-specification:BPdotsUnicaseSquare"
         id="path3806"
         inkscape:connector-curvature="0" />
      <path
         d="m 276.17187,460.86916 3,0 0,-3 -3,0 0,3 m 4,0 3,0 0,-3 -3,0 0,3 m 8,-4 3,0 0,-3 -3,0 0,3 m -16,0 3,0 0,-3 -3,0 0,3 m 12,4 3,0 0,-3 -3,0 0,3 m 0,-16 3,0 0,-3 -3,0 0,3 m -12,4 3,0 0,-3 -3,0 0,3 m 8,-4 3,0 0,-3 -3,0 0,3 m -8,8 3,0 0,-3 -3,0 0,3 m 16,0 3,0 0,-3 -3,0 0,3 m -12,-8 3,0 0,-3 -3,0 0,3 m 12,4 3,0 0,-3 -3,0 0,3"
         style="font-variant:normal;font-stretch:normal;fill:#ff0000;font-family:BPdotsUnicaseSquare;-inkscape-font-specification:BPdotsUnicaseSquare"
         id="path3808"
         inkscape:connector-curvature="0" />
      <path
         d="m 296.15625,460.86916 3,0 0,-3 -3,0 0,3 m 16,-4 3,0 0,-3 -3,0 0,3 m -12,4 3,0 0,-3 -3,0 0,3 m 8,0 3,0 0,-3 -3,0 0,3 m -8,-8 3,0 0,-3 -3,0 0,3 m -4,0 3,0 0,-3 -3,0 0,3 m 12,0 3,0 0,-3 -3,0 0,3 m 4,-4 3,0 0,-3 -3,0 0,3 m -16,-4 3,0 0,-3 -3,0 0,3 m 4,0 3,0 0,-3 -3,0 0,3 m 4,16 3,0 0,-3 -3,0 0,3 m -8,-12 3,0 0,-3 -3,0 0,3 m 0,8 3,0 0,-3 -3,0 0,3 m 8,-4 3,0 0,-3 -3,0 0,3 m 4,-8 3,0 0,-3 -3,0 0,3 m -4,0 3,0 0,-3 -3,0 0,3"
         style="font-variant:normal;font-stretch:normal;fill:#ff0000;font-family:BPdotsUnicaseSquare;-inkscape-font-specification:BPdotsUnicaseSquare"
         id="path3810"
         inkscape:connector-curvature="0" />
      <path
         d="m 320.14062,460.86916 3,0 0,-3 -3,0 0,3 m 0,-12 3,0 0,-3 -3,0 0,3 m 16,12 3,0 0,-3 -3,0 0,3 m -16,-8 3,0 0,-3 -3,0 0,3 m 8,8 3,0 0,-3 -3,0 0,3 m -8,-4 3,0 0,-3 -3,0 0,3 m 4,4 3,0 0,-3 -3,0 0,3 m -4,-16 3,0 0,-3 -3,0 0,3 m 12,16 3,0 0,-3 -3,0 0,3"
         style="font-variant:normal;font-stretch:normal;fill:#ff0000;font-family:BPdotsUnicaseSquare;-inkscape-font-specification:BPdotsUnicaseSquare"
         id="path3812"
         inkscape:connector-curvature="0" />
      <path
         d="m 348.125,460.86916 3,0 0,-3 -3,0 0,3 m 8,0 3,0 0,-3 -3,0 0,3 m -12,-12 3,0 0,-3 -3,0 0,3 m 12,4 3,0 0,-3 -3,0 0,3 m 4,0 3,0 0,-3 -3,0 0,3 m 0,8 3,0 0,-3 -3,0 0,3 m -16,-8 3,0 0,-3 -3,0 0,3 m 0,4 3,0 0,-3 -3,0 0,3 m 16,-8 3,0 0,-3 -3,0 0,3 m -12,-4 3,0 0,-3 -3,0 0,3 m 4,8 3,0 0,-3 -3,0 0,3 m 0,8 3,0 0,-3 -3,0 0,3 m -4,-8 3,0 0,-3 -3,0 0,3 m 8,-8 3,0 0,-3 -3,0 0,3 m -4,0 3,0 0,-3 -3,0 0,3"
         style="font-variant:normal;font-stretch:normal;fill:#ff0000;font-family:BPdotsUnicaseSquare;-inkscape-font-specification:BPdotsUnicaseSquare"
         id="path3814"
         inkscape:connector-curvature="0" />
      <path
         d="m 400.09375,460.86916 3,0 0,-3 -3,0 0,3 m -4,-16 3,0 0,-3 -3,0 0,3 m -4,0 3,0 0,-3 -3,0 0,3 m 8,0 3,0 0,-3 -3,0 0,3 m 0,8 3,0 0,-3 -3,0 0,3 m 4,-8 3,0 0,-3 -3,0 0,3 m -4,4 3,0 0,-3 -3,0 0,3 m 8,-4 3,0 0,-3 -3,0 0,3 m -8,12 3,0 0,-3 -3,0 0,3"
         style="font-variant:normal;font-stretch:normal;fill:#ff0000;font-family:BPdotsUnicaseSquare;-inkscape-font-specification:BPdotsUnicaseSquare"
         id="path3816"
         inkscape:connector-curvature="0" />
      <path
         d="m 420.07812,460.86916 3,0 0,-3 -3,0 0,3 m -4,-16 3,0 0,-3 -3,0 0,3 m 4,8 3,0 0,-3 -3,0 0,3 m 0,-4 3,0 0,-3 -3,0 0,3 m 8,-4 3,0 0,-3 -3,0 0,3 m -12,16 3,0 0,-3 -3,0 0,3 m 4,-16 3,0 0,-3 -3,0 0,3 m 4,16 3,0 0,-3 -3,0 0,3 m 0,-12 3,0 0,-3 -3,0 0,3 m 8,-4 3,0 0,-3 -3,0 0,3 m -12,12 3,0 0,-3 -3,0 0,3 m 8,4 3,0 0,-3 -3,0 0,3"
         style="font-variant:normal;font-stretch:normal;fill:#ff0000;font-family:BPdotsUnicaseSquare;-inkscape-font-specification:BPdotsUnicaseSquare"
         id="path3818"
         inkscape:connector-curvature="0" />
      <path
         d="m 444.0625,460.86916 3,0 0,-3 -3,0 0,3 m -4,-16 3,0 0,-3 -3,0 0,3 m 16,16 3,0 0,-3 -3,0 0,3 m -8,0 3,0 0,-3 -3,0 0,3 m -8,-8 3,0 0,-3 -3,0 0,3 m 0,-4 3,0 0,-3 -3,0 0,3 m 16,0 3,0 0,-3 -3,0 0,3 m -4,8 3,0 0,-3 -3,0 0,3 m 4,0 3,0 0,-3 -3,0 0,3 m 0,-4 3,0 0,-3 -3,0 0,3 m 0,-8 3,0 0,-3 -3,0 0,3 m -16,12 3,0 0,-3 -3,0 0,3"
         style="font-variant:normal;font-stretch:normal;fill:#ff0000;font-family:BPdotsUnicaseSquare;-inkscape-font-specification:BPdotsUnicaseSquare"
         id="path3820"
         inkscape:connector-curvature="0" />
      <path
         d="m 472.04687,460.86916 3,0 0,-3 -3,0 0,3 m -4,-16 3,0 0,-3 -3,0 0,3 m -4,0 3,0 0,-3 -3,0 0,3 m 8,0 3,0 0,-3 -3,0 0,3 m 0,8 3,0 0,-3 -3,0 0,3 m 4,-8 3,0 0,-3 -3,0 0,3 m -4,4 3,0 0,-3 -3,0 0,3 m 8,-4 3,0 0,-3 -3,0 0,3 m -8,12 3,0 0,-3 -3,0 0,3"
         style="font-variant:normal;font-stretch:normal;fill:#ff0000;font-family:BPdotsUnicaseSquare;-inkscape-font-specification:BPdotsUnicaseSquare"
         id="path3822"
         inkscape:connector-curvature="0" />
      <path
         d="m 488.03125,460.86916 3,0 0,-3 -3,0 0,3 m 16,-12 3,0 0,-3 -3,0 0,3 m -16,8 3,0 0,-3 -3,0 0,3 m 0,-12 3,0 0,-3 -3,0 0,3 m 4,8 3,0 0,-3 -3,0 0,3 m 12,0 3,0 0,-3 -3,0 0,3 m 0,-8 3,0 0,-3 -3,0 0,3 m -16,4 3,0 0,-3 -3,0 0,3 m 16,12 3,0 0,-3 -3,0 0,3 m -8,-8 3,0 0,-3 -3,0 0,3 m -8,0 3,0 0,-3 -3,0 0,3 m 12,0 3,0 0,-3 -3,0 0,3 m 4,4 3,0 0,-3 -3,0 0,3"
         style="font-variant:normal;font-stretch:normal;fill:#ff0000;font-family:BPdotsUnicaseSquare;-inkscape-font-specification:BPdotsUnicaseSquare"
         id="path3824"
         inkscape:connector-curvature="0" />
    </g>
  </g>
</svg>
