<?xml version="1.0" encoding="UTF-8" standalone="no"?>
<!-- Created with Inkscape (http://www.inkscape.org/) -->

<svg
   xmlns:dc="http://purl.org/dc/elements/1.1/"
   xmlns:cc="http://creativecommons.org/ns#"
   xmlns:rdf="http://www.w3.org/1999/02/22-rdf-syntax-ns#"
   xmlns:svg="http://www.w3.org/2000/svg"
   xmlns="http://www.w3.org/2000/svg"
   version="1.2"
   width="426.73438"
   height="19"
   id="svg2">
  <defs
     id="defs4" />
  <metadata
     id="metadata7">
    <rdf:RDF>
      <cc:Work
         rdf:about="">
        <dc:format>image/svg+xml</dc:format>
        <dc:type
           rdf:resource="http://purl.org/dc/dcmitype/StillImage" />
        <dc:title></dc:title>
      </cc:Work>
    </rdf:RDF>
  </metadata>
  <g
     transform="translate(-104.28125,-441.86916)"
     id="layer1">
    <g
       id="flowRoot2985"
       style="font-size:40px;font-style:normal;font-weight:normal;line-height:125%;letter-spacing:0px;word-spacing:0px;fill:#ff0000;fill-opacity:1;stroke:none;font-family:Sans">
      <path
         d="m 104.28125,460.86916 3,0 0,-3 -3,0 0,3 m 12,0 3,0 0,-3 -3,0 0,3 m 0,-8 3,0 0,-3 -3,0 0,3 m -12,-4 3,0 0,-3 -3,0 0,3 m 4,-4 3,0 0,-3 -3,0 0,3 m 4,0 3,0 0,-3 -3,0 0,3 m -4,16 3,0 0,-3 -3,0 0,3 m 4,-8 3,0 0,-3 -3,0 0,3 m 0,8 3,0 0,-3 -3,0 0,3 m 4,-16 3,0 0,-3 -3,0 0,3 m 4,12 3,0 0,-3 -3,0 0,3 m 0,-12 3,0 0,-3 -3,0 0,3 m -12,8 3,0 0,-3 -3,0 0,3"
         id="path3846"
         style="font-variant:normal;font-stretch:normal;fill:#ff0000;font-family:BPdotsUnicaseSquare;-inkscape-font-specification:BPdotsUnicaseSquare" />
      <path
         d="m 132.26562,460.86916 3,0 0,-3 -3,0 0,3 m 8,0 3,0 0,-3 -3,0 0,3 m -12,-12 3,0 0,-3 -3,0 0,3 m 12,4 3,0 0,-3 -3,0 0,3 m 4,0 3,0 0,-3 -3,0 0,3 m 0,8 3,0 0,-3 -3,0 0,3 m -16,-8 3,0 0,-3 -3,0 0,3 m 0,4 3,0 0,-3 -3,0 0,3 m 16,-8 3,0 0,-3 -3,0 0,3 m -12,-4 3,0 0,-3 -3,0 0,3 m 4,8 3,0 0,-3 -3,0 0,3 m 0,8 3,0 0,-3 -3,0 0,3 m -4,-8 3,0 0,-3 -3,0 0,3 m 8,-8 3,0 0,-3 -3,0 0,3 m -4,0 3,0 0,-3 -3,0 0,3"
         id="path3848"
         style="font-variant:normal;font-stretch:normal;fill:#ff0000;font-family:BPdotsUnicaseSquare;-inkscape-font-specification:BPdotsUnicaseSquare" />
      <path
         d="m 156.25,460.86916 3,0 0,-3 -3,0 0,3 m 12,-4 3,0 0,-3 -3,0 0,3 m -4,4 3,0 0,-3 -3,0 0,3 m -8,-16 3,0 0,-3 -3,0 0,3 m -4,12 3,0 0,-3 -3,0 0,3 m 0,-8 3,0 0,-3 -3,0 0,3 m 0,4 3,0 0,-3 -3,0 0,3 m 8,-8 3,0 0,-3 -3,0 0,3 m 0,16 3,0 0,-3 -3,0 0,3 m 4,-16 3,0 0,-3 -3,0 0,3 m 4,4 3,0 0,-3 -3,0 0,3"
         id="path3850"
         style="font-variant:normal;font-stretch:normal;fill:#ff0000;font-family:BPdotsUnicaseSquare;-inkscape-font-specification:BPdotsUnicaseSquare" />
      <path
         d="m 180.23437,460.86916 3,0 0,-3 -3,0 0,3 m 4,0 3,0 0,-3 -3,0 0,3 m 8,-4 3,0 0,-3 -3,0 0,3 m -16,0 3,0 0,-3 -3,0 0,3 m 12,4 3,0 0,-3 -3,0 0,3 m 0,-16 3,0 0,-3 -3,0 0,3 m -12,4 3,0 0,-3 -3,0 0,3 m 8,-4 3,0 0,-3 -3,0 0,3 m -8,8 3,0 0,-3 -3,0 0,3 m 16,0 3,0 0,-3 -3,0 0,3 m -12,-8 3,0 0,-3 -3,0 0,3 m 12,4 3,0 0,-3 -3,0 0,3"
         id="path3852"
         style="font-variant:normal;font-stretch:normal;fill:#ff0000;font-family:BPdotsUnicaseSquare;-inkscape-font-specification:BPdotsUnicaseSquare" />
      <path
         d="m 200.21875,460.86916 3,0 0,-3 -3,0 0,3 m 16,-8 3,0 0,-3 -3,0 0,3 m 0,4 3,0 0,-3 -3,0 0,3 m -16,-8 3,0 0,-3 -3,0 0,3 m 12,-4 3,0 0,-3 -3,0 0,3 m -12,12 3,0 0,-3 -3,0 0,3 m 8,-12 3,0 0,-3 -3,0 0,3 m -8,8 3,0 0,-3 -3,0 0,3 m 0,-8 3,0 0,-3 -3,0 0,3 m 4,4 3,0 0,-3 -3,0 0,3 m 12,12 3,0 0,-3 -3,0 0,3 m 0,-12 3,0 0,-3 -3,0 0,3"
         id="path3854"
         style="font-variant:normal;font-stretch:normal;fill:#ff0000;font-family:BPdotsUnicaseSquare;-inkscape-font-specification:BPdotsUnicaseSquare" />
      <path
         d="m 224.20312,460.86916 3,0 0,-3 -3,0 0,3 m 16,-4 3,0 0,-3 -3,0 0,3 m 0,-8 3,0 0,-3 -3,0 0,3 m -12,-4 3,0 0,-3 -3,0 0,3 m 4,16 3,0 0,-3 -3,0 0,3 m -8,-4 3,0 0,-3 -3,0 0,3 m 0,-8 3,0 0,-3 -3,0 0,3 m 4,12 3,0 0,-3 -3,0 0,3 m -4,-16 3,0 0,-3 -3,0 0,3 m 8,0 3,0 0,-3 -3,0 0,3 m -8,8 3,0 0,-3 -3,0 0,3 m 16,0 3,0 0,-3 -3,0 0,3 m -4,-8 3,0 0,-3 -3,0 0,3 m 0,16 3,0 0,-3 -3,0 0,3"
         id="path3856"
         style="font-variant:normal;font-stretch:normal;fill:#ff0000;font-family:BPdotsUnicaseSquare;-inkscape-font-specification:BPdotsUnicaseSquare" />
      <path
         d="m 272.17187,460.86916 3,0 0,-3 -3,0 0,3 m 16,-8 3,0 0,-3 -3,0 0,3 m 0,4 3,0 0,-3 -3,0 0,3 m -16,-8 3,0 0,-3 -3,0 0,3 m 12,-4 3,0 0,-3 -3,0 0,3 m -12,12 3,0 0,-3 -3,0 0,3 m 8,-12 3,0 0,-3 -3,0 0,3 m -8,8 3,0 0,-3 -3,0 0,3 m 0,-8 3,0 0,-3 -3,0 0,3 m 4,4 3,0 0,-3 -3,0 0,3 m 12,12 3,0 0,-3 -3,0 0,3 m 0,-12 3,0 0,-3 -3,0 0,3"
         id="path3858"
         style="font-variant:normal;font-stretch:normal;fill:#ff0000;font-family:BPdotsUnicaseSquare;-inkscape-font-specification:BPdotsUnicaseSquare" />
      <path
         d="m 300.15625,460.86916 3,0 0,-3 -3,0 0,3 m 4,0 3,0 0,-3 -3,0 0,3 m 8,-4 3,0 0,-3 -3,0 0,3 m -16,0 3,0 0,-3 -3,0 0,3 m 12,4 3,0 0,-3 -3,0 0,3 m 0,-16 3,0 0,-3 -3,0 0,3 m -12,4 3,0 0,-3 -3,0 0,3 m 8,-4 3,0 0,-3 -3,0 0,3 m -8,8 3,0 0,-3 -3,0 0,3 m 16,0 3,0 0,-3 -3,0 0,3 m -12,-8 3,0 0,-3 -3,0 0,3 m 12,4 3,0 0,-3 -3,0 0,3"
         id="path3860"
         style="font-variant:normal;font-stretch:normal;fill:#ff0000;font-family:BPdotsUnicaseSquare;-inkscape-font-specification:BPdotsUnicaseSquare" />
      <path
         d="m 320.14062,460.86916 3,0 0,-3 -3,0 0,3 m 16,-4 3,0 0,-3 -3,0 0,3 m -12,4 3,0 0,-3 -3,0 0,3 m 8,0 3,0 0,-3 -3,0 0,3 m -8,-8 3,0 0,-3 -3,0 0,3 m -4,0 3,0 0,-3 -3,0 0,3 m 12,0 3,0 0,-3 -3,0 0,3 m 4,-4 3,0 0,-3 -3,0 0,3 m -16,-4 3,0 0,-3 -3,0 0,3 m 4,0 3,0 0,-3 -3,0 0,3 m 4,16 3,0 0,-3 -3,0 0,3 m -8,-12 3,0 0,-3 -3,0 0,3 m 0,8 3,0 0,-3 -3,0 0,3 m 8,-4 3,0 0,-3 -3,0 0,3 m 4,-8 3,0 0,-3 -3,0 0,3 m -4,0 3,0 0,-3 -3,0 0,3"
         id="path3862"
         style="font-variant:normal;font-stretch:normal;fill:#ff0000;font-family:BPdotsUnicaseSquare;-inkscape-font-specification:BPdotsUnicaseSquare" />
      <path
         d="m 344.125,460.86916 3,0 0,-3 -3,0 0,3 m 0,-12 3,0 0,-3 -3,0 0,3 m 16,12 3,0 0,-3 -3,0 0,3 m -16,-8 3,0 0,-3 -3,0 0,3 m 8,8 3,0 0,-3 -3,0 0,3 m -8,-4 3,0 0,-3 -3,0 0,3 m 4,4 3,0 0,-3 -3,0 0,3 m -4,-16 3,0 0,-3 -3,0 0,3 m 12,16 3,0 0,-3 -3,0 0,3"
         id="path3864"
         style="font-variant:normal;font-stretch:normal;fill:#ff0000;font-family:BPdotsUnicaseSquare;-inkscape-font-specification:BPdotsUnicaseSquare" />
      <path
         d="m 372.10937,460.86916 3,0 0,-3 -3,0 0,3 m 8,0 3,0 0,-3 -3,0 0,3 m -12,-12 3,0 0,-3 -3,0 0,3 m 12,4 3,0 0,-3 -3,0 0,3 m 4,0 3,0 0,-3 -3,0 0,3 m 0,8 3,0 0,-3 -3,0 0,3 m -16,-8 3,0 0,-3 -3,0 0,3 m 0,4 3,0 0,-3 -3,0 0,3 m 16,-8 3,0 0,-3 -3,0 0,3 m -12,-4 3,0 0,-3 -3,0 0,3 m 4,8 3,0 0,-3 -3,0 0,3 m 0,8 3,0 0,-3 -3,0 0,3 m -4,-8 3,0 0,-3 -3,0 0,3 m 8,-8 3,0 0,-3 -3,0 0,3 m -4,0 3,0 0,-3 -3,0 0,3"
         id="path3866"
         style="font-variant:normal;font-stretch:normal;fill:#ff0000;font-family:BPdotsUnicaseSquare;-inkscape-font-specification:BPdotsUnicaseSquare" />
      <path
         d="m 424.07812,460.86916 3,0 0,-3 -3,0 0,3 m -4,-16 3,0 0,-3 -3,0 0,3 m -4,0 3,0 0,-3 -3,0 0,3 m 8,0 3,0 0,-3 -3,0 0,3 m 0,8 3,0 0,-3 -3,0 0,3 m 4,-8 3,0 0,-3 -3,0 0,3 m -4,4 3,0 0,-3 -3,0 0,3 m 8,-4 3,0 0,-3 -3,0 0,3 m -8,12 3,0 0,-3 -3,0 0,3"
         id="path3868"
         style="font-variant:normal;font-stretch:normal;fill:#ff0000;font-family:BPdotsUnicaseSquare;-inkscape-font-specification:BPdotsUnicaseSquare" />
      <path
         d="m 444.0625,460.86916 3,0 0,-3 -3,0 0,3 m -4,-16 3,0 0,-3 -3,0 0,3 m 4,8 3,0 0,-3 -3,0 0,3 m 0,-4 3,0 0,-3 -3,0 0,3 m 8,-4 3,0 0,-3 -3,0 0,3 m -12,16 3,0 0,-3 -3,0 0,3 m 4,-16 3,0 0,-3 -3,0 0,3 m 4,16 3,0 0,-3 -3,0 0,3 m 0,-12 3,0 0,-3 -3,0 0,3 m 8,-4 3,0 0,-3 -3,0 0,3 m -12,12 3,0 0,-3 -3,0 0,3 m 8,4 3,0 0,-3 -3,0 0,3"
         id="path3870"
         style="font-variant:normal;font-stretch:normal;fill:#ff0000;font-family:BPdotsUnicaseSquare;-inkscape-font-specification:BPdotsUnicaseSquare" />
      <path
         d="m 468.04687,460.86916 3,0 0,-3 -3,0 0,3 m -4,-16 3,0 0,-3 -3,0 0,3 m 16,16 3,0 0,-3 -3,0 0,3 m -8,0 3,0 0,-3 -3,0 0,3 m -8,-8 3,0 0,-3 -3,0 0,3 m 0,-4 3,0 0,-3 -3,0 0,3 m 16,0 3,0 0,-3 -3,0 0,3 m -4,8 3,0 0,-3 -3,0 0,3 m 4,0 3,0 0,-3 -3,0 0,3 m 0,-4 3,0 0,-3 -3,0 0,3 m 0,-8 3,0 0,-3 -3,0 0,3 m -16,12 3,0 0,-3 -3,0 0,3"
         id="path3872"
         style="font-variant:normal;font-stretch:normal;fill:#ff0000;font-family:BPdotsUnicaseSquare;-inkscape-font-specification:BPdotsUnicaseSquare" />
      <path
         d="m 496.03125,460.86916 3,0 0,-3 -3,0 0,3 m -4,-16 3,0 0,-3 -3,0 0,3 m -4,0 3,0 0,-3 -3,0 0,3 m 8,0 3,0 0,-3 -3,0 0,3 m 0,8 3,0 0,-3 -3,0 0,3 m 4,-8 3,0 0,-3 -3,0 0,3 m -4,4 3,0 0,-3 -3,0 0,3 m 8,-4 3,0 0,-3 -3,0 0,3 m -8,12 3,0 0,-3 -3,0 0,3"
         id="path3874"
         style="font-variant:normal;font-stretch:normal;fill:#ff0000;font-family:BPdotsUnicaseSquare;-inkscape-font-specification:BPdotsUnicaseSquare" />
      <path
         d="m 512.01562,460.86916 3,0 0,-3 -3,0 0,3 m 16,-12 3,0 0,-3 -3,0 0,3 m -16,8 3,0 0,-3 -3,0 0,3 m 0,-12 3,0 0,-3 -3,0 0,3 m 4,8 3,0 0,-3 -3,0 0,3 m 12,0 3,0 0,-3 -3,0 0,3 m 0,-8 3,0 0,-3 -3,0 0,3 m -16,4 3,0 0,-3 -3,0 0,3 m 16,12 3,0 0,-3 -3,0 0,3 m -8,-8 3,0 0,-3 -3,0 0,3 m -8,0 3,0 0,-3 -3,0 0,3 m 12,0 3,0 0,-3 -3,0 0,3 m 4,4 3,0 0,-3 -3,0 0,3"
         id="path3876"
         style="font-variant:normal;font-stretch:normal;fill:#ff0000;font-family:BPdotsUnicaseSquare;-inkscape-font-specification:BPdotsUnicaseSquare" />
    </g>
  </g>
</svg>
