<?xml version="1.0" encoding="UTF-8" standalone="no"?>
<!-- Created with Inkscape (http://www.inkscape.org/) -->

<svg
   xmlns:dc="http://purl.org/dc/elements/1.1/"
   xmlns:cc="http://creativecommons.org/ns#"
   xmlns:rdf="http://www.w3.org/1999/02/22-rdf-syntax-ns#"
   xmlns:svg="http://www.w3.org/2000/svg"
   xmlns="http://www.w3.org/2000/svg"
   version="1.1"
   width="210.875"
   height="27"
   id="svg2">
  <defs
     id="defs4" />
  <metadata
     id="metadata7">
    <rdf:RDF>
      <cc:Work
         rdf:about="">
        <dc:format>image/svg+xml</dc:format>
        <dc:type
           rdf:resource="http://purl.org/dc/dcmitype/StillImage" />
        <dc:title></dc:title>
      </cc:Work>
    </rdf:RDF>
  </metadata>
  <g
     transform="translate(-97.055255,-883.81602)"
     id="layer1">
    <g
       id="text2985"
       style="font-size:40px;font-style:normal;font-variant:normal;font-weight:normal;font-stretch:normal;line-height:125%;letter-spacing:0px;word-spacing:0px;fill:#666666;fill-opacity:1;stroke:none;font-family:BPdotsUnicaseSquare;-inkscape-font-specification:BPdotsUnicaseSquare">
      <text
         x="4.5818706"
         y="27.509096"
         transform="translate(91.964287,888.39789)"
         id="text5847"
         xml:space="preserve"
         style="font-size:40px;font-style:normal;font-variant:normal;font-weight:normal;font-stretch:normal;line-height:125%;letter-spacing:0px;word-spacing:0px;fill:#000000;fill-opacity:1;stroke:none;font-family:BPdotsUnicaseSquare;-inkscape-font-specification:BPdotsUnicaseSquare"><tspan
           x="4.5818706"
           y="27.509096"
           id="tspan5849"></tspan></text>
      <g
         transform="translate(91.964287,888.39789)"
         id="text5851"
         style="line-height:125%;font-family:BPdotsUnicaseSquare;-inkscape-font-specification:BPdotsUnicaseSquare">
        <path
           d="m 5.0909677,22.418129 3,0 0,-3 -3,0 0,3 m 12.0000003,0 3,0 0,-3 -3,0 0,3 m 0,-8 3,0 0,-3 -3,0 0,3 m -12.0000003,-4 3,0 0,-3 -3,0 0,3 m 4,-4 3.0000003,0 0,-3 -3.0000003,0 0,3 m 4.0000003,0 3,0 0,-3 -3,0 0,3 m -4.0000003,16 3.0000003,0 0,-3 -3.0000003,0 0,3 m 4.0000003,-8 3,0 0,-3 -3,0 0,3 m 0,8 3,0 0,-3 -3,0 0,3 m 4,-16 3,0 0,-3 -3,0 0,3 m 4,12 3,0 0,-3 -3,0 0,3 m 0,-12 3,0 0,-3 -3,0 0,3 m -12.0000003,8 3.0000003,0 0,-3 -3.0000003,0 0,3"
           id="path5856" />
        <path
           d="m 33.075343,22.418129 3,0 0,-3 -3,0 0,3 m -4,-16 3,0 0,-3 -3,0 0,3 m 16,16 3,0 0,-3 -3,0 0,3 m -8,0 3,0 0,-3 -3,0 0,3 m -8,-8 3,0 0,-3 -3,0 0,3 m 0,-4 3,0 0,-3 -3,0 0,3 m 16,0 3,0 0,-3 -3,0 0,3 m -4,8 3,0 0,-3 -3,0 0,3 m 4,0 3,0 0,-3 -3,0 0,3 m 0,-4 3,0 0,-3 -3,0 0,3 m 0,-8 3,0 0,-3 -3,0 0,3 m -16,12 3,0 0,-3 -3,0 0,3"
           id="path5858" />
        <path
           d="m 53.059718,22.418129 3,0 0,-3 -3,0 0,3 m 16,-8 3,0 0,-3 -3,0 0,3 m -16,0 3,0 0,-3 -3,0 0,3 m 16,8 3,0 0,-3 -3,0 0,3 m -8,-4 3,0 0,-3 -3,0 0,3 m 8,-8 3,0 0,-3 -3,0 0,3 m -8,-4 3,0 0,-3 -3,0 0,3 m -4,4 3,0 0,-3 -3,0 0,3 m 4,0 3,0 0,-3 -3,0 0,3 m -8,8 3,0 0,-3 -3,0 0,3 m 0,-12 3,0 0,-3 -3,0 0,3 m 12,4 3,0 0,-3 -3,0 0,3 m -4,4 3,0 0,-3 -3,0 0,3 m 0,8 3,0 0,-3 -3,0 0,3 m -8,-12 3,0 0,-3 -3,0 0,3 m 16,8 3,0 0,-3 -3,0 0,3 m 0,-12 3,0 0,-3 -3,0 0,3"
           id="path5860" />
        <path
           d="m 77.044093,22.418129 3,0 0,-3 -3,0 0,3 m 16,-8 3,0 0,-3 -3,0 0,3 m -16,0 3,0 0,-3 -3,0 0,3 m 16,8 3,0 0,-3 -3,0 0,3 m -8,-4 3,0 0,-3 -3,0 0,3 m 8,-8 3,0 0,-3 -3,0 0,3 m -8,-4 3,0 0,-3 -3,0 0,3 m -4,4 3,0 0,-3 -3,0 0,3 m 4,0 3,0 0,-3 -3,0 0,3 m -8,8 3,0 0,-3 -3,0 0,3 m 0,-12 3,0 0,-3 -3,0 0,3 m 12,4 3,0 0,-3 -3,0 0,3 m -4,4 3,0 0,-3 -3,0 0,3 m 0,8 3,0 0,-3 -3,0 0,3 m -8,-12 3,0 0,-3 -3,0 0,3 m 16,8 3,0 0,-3 -3,0 0,3 m 0,-12 3,0 0,-3 -3,0 0,3"
           id="path5862" />
        <path
           d="m 105.02847,22.418129 3,0 0,-3 -3,0 0,3 m 12,-12 3,0 0,-3 -3,0 0,3 m -12,4 3,0 0,-3 -3,0 0,3 m -4,4 3,0 0,-3 -3,0 0,3 m 16,0 3,0 0,-3 -3,0 0,3 m 0,-4 3,0 0,-3 -3,0 0,3 m -8,8 3,0 0,-3 -3,0 0,3 m 0,-16 3,0 0,-3 -3,0 0,3 m 4,8 3,0 0,-3 -3,0 0,3 m -8,-8 3,0 0,-3 -3,0 0,3 m 8,16 3,0 0,-3 -3,0 0,3 m -4,-8 3,0 0,-3 -3,0 0,3 m 4,-8 3,0 0,-3 -3,0 0,3 m 4,16 3,0 0,-3 -3,0 0,3"
           id="path5864" />
        <path
           d="m 129.01284,22.418129 3,0 0,-3 -3,0 0,3 m -4,-16 3,0 0,-3 -3,0 0,3 m 4,8 3,0 0,-3 -3,0 0,3 m 0,-4 3,0 0,-3 -3,0 0,3 m 8,-4 3,0 0,-3 -3,0 0,3 m -12,16 3,0 0,-3 -3,0 0,3 m 4,-16 3,0 0,-3 -3,0 0,3 m 4,16 3,0 0,-3 -3,0 0,3 m 0,-12 3,0 0,-3 -3,0 0,3 m 8,-4 3,0 0,-3 -3,0 0,3 m -12,12 3,0 0,-3 -3,0 0,3 m 8,4 3,0 0,-3 -3,0 0,3"
           id="path5866" />
        <path
           d="m 148.99722,22.418129 3,0 0,-3 -3,0 0,3 m 8,-24 3,0 0,-3 -3,0 0,3 m 0,24 3,0 0,-3 -3,0 0,3 m -4,-16 3,0 0,-3 -3,0 0,3 m 4,8 3,0 0,-3 -3,0 0,3 m 0,-8 3,0 0,-3 -3,0 0,3 m -8,0 3,0 0,-3 -3,0 0,3 m 16,16 3,0 0,-3 -3,0 0,3 m -8,-4 3,0 0,-3 -3,0 0,3 m 0,-8 3,0 0,-3 -3,0 0,3 m -4,12 3,0 0,-3 -3,0 0,3 m 8,0 3,0 0,-3 -3,0 0,3"
           id="path5868" />
        <path
           d="m 176.98159,22.418129 3,0 0,-3 -3,0 0,3 m 8,0 3,0 0,-3 -3,0 0,3 m -12,-12 3,0 0,-3 -3,0 0,3 m 12,4 3,0 0,-3 -3,0 0,3 m 4,0 3,0 0,-3 -3,0 0,3 m 0,8 3,0 0,-3 -3,0 0,3 m -16,-8 3,0 0,-3 -3,0 0,3 m 0,4 3,0 0,-3 -3,0 0,3 m 16,-8 3,0 0,-3 -3,0 0,3 m -12,-4 3,0 0,-3 -3,0 0,3 m 4,8 3,0 0,-3 -3,0 0,3 m 0,8 3,0 0,-3 -3,0 0,3 m -4,-8 3,0 0,-3 -3,0 0,3 m 8,-8 3,0 0,-3 -3,0 0,3 m -4,0 3,0 0,-3 -3,0 0,3"
           id="path5870" />
        <path
           d="m 196.96597,22.418129 3,0 0,-3 -3,0 0,3 m 12,0 3,0 0,-3 -3,0 0,3 m 0,-8 3,0 0,-3 -3,0 0,3 m -12,-4 3,0 0,-3 -3,0 0,3 m 4,-4 3,0 0,-3 -3,0 0,3 m 4,0 3,0 0,-3 -3,0 0,3 m -4,16 3,0 0,-3 -3,0 0,3 m 4,-8 3,0 0,-3 -3,0 0,3 m 0,8 3,0 0,-3 -3,0 0,3 m 4,-16 3,0 0,-3 -3,0 0,3 m 4,12 3,0 0,-3 -3,0 0,3 m 0,-12 3,0 0,-3 -3,0 0,3 m -12,8 3,0 0,-3 -3,0 0,3"
           id="path5872" />
      </g>
    </g>
  </g>
</svg>
