<?xml version="1.0" encoding="UTF-8" standalone="no"?>
<!-- Created with Inkscape (http://www.inkscape.org/) -->

<svg
   xmlns:dc="http://purl.org/dc/elements/1.1/"
   xmlns:cc="http://creativecommons.org/ns#"
   xmlns:rdf="http://www.w3.org/1999/02/22-rdf-syntax-ns#"
   xmlns:svg="http://www.w3.org/2000/svg"
   xmlns="http://www.w3.org/2000/svg"
   xmlns:sodipodi="http://sodipodi.sourceforge.net/DTD/sodipodi-0.dtd"
   xmlns:inkscape="http://www.inkscape.org/namespaces/inkscape"
   width="306.8125"
   height="19"
   id="svg5042"
   version="1.1"
   inkscape:version="0.48.4 r9939"
   sodipodi:docname="freqs.svg">
  <defs
     id="defs5044" />
  <sodipodi:namedview
     id="base"
     pagecolor="#ffffff"
     bordercolor="#666666"
     borderopacity="1.0"
     inkscape:pageopacity="0.0"
     inkscape:pageshadow="2"
     inkscape:zoom="2.8"
     inkscape:cx="66.082589"
     inkscape:cy="-81.411211"
     inkscape:document-units="px"
     inkscape:current-layer="layer1"
     showgrid="false"
     inkscape:window-width="1855"
     inkscape:window-height="1056"
     inkscape:window-x="65"
     inkscape:window-y="24"
     inkscape:window-maximized="1"
     fit-margin-top="0"
     fit-margin-left="0"
     fit-margin-right="0"
     fit-margin-bottom="0" />
  <metadata
     id="metadata5047">
    <rdf:RDF>
      <cc:Work
         rdf:about="">
        <dc:format>image/svg+xml</dc:format>
        <dc:type
           rdf:resource="http://purl.org/dc/dcmitype/StillImage" />
        <dc:title></dc:title>
      </cc:Work>
    </rdf:RDF>
  </metadata>
  <g
     inkscape:label="Layer 1"
     inkscape:groupmode="layer"
     id="layer1"
     transform="translate(-38.57143,-764.43359)">
    <g
       style="font-size:40px;font-style:normal;font-variant:normal;font-weight:normal;font-stretch:normal;line-height:125%;letter-spacing:0px;word-spacing:0px;fill:#666666;fill-opacity:1;stroke:none;font-family:BPdotsUnicaseSquare;-inkscape-font-specification:BPdotsUnicaseSquare"
       id="text6339">
      <path
         d="m 38.57143,783.43359 3,0 0,-3 -3,0 0,3 m 12,0 3,0 0,-3 -3,0 0,3 m 0,-8 3,0 0,-3 -3,0 0,3 m -12,-4 3,0 0,-3 -3,0 0,3 m 4,-4 3,0 0,-3 -3,0 0,3 m 4,0 3,0 0,-3 -3,0 0,3 m -4,16 3,0 0,-3 -3,0 0,3 m 4,-8 3,0 0,-3 -3,0 0,3 m 0,8 3,0 0,-3 -3,0 0,3 m 4,-16 3,0 0,-3 -3,0 0,3 m 4,12 3,0 0,-3 -3,0 0,3 m 0,-12 3,0 0,-3 -3,0 0,3 m -12,8 3,0 0,-3 -3,0 0,3"
         style="fill:#666666;fill-opacity:1"
         id="path6386"
         inkscape:connector-curvature="0" />
      <path
         d="m 66.555805,783.43359 3,0 0,-3 -3,0 0,3 m -4,-16 3,0 0,-3 -3,0 0,3 m 16,16 3,0 0,-3 -3,0 0,3 m -8,0 3,0 0,-3 -3,0 0,3 m -8,-8 3,0 0,-3 -3,0 0,3 m 0,-4 3,0 0,-3 -3,0 0,3 m 16,0 3,0 0,-3 -3,0 0,3 m -4,8 3,0 0,-3 -3,0 0,3 m 4,0 3,0 0,-3 -3,0 0,3 m 0,-4 3,0 0,-3 -3,0 0,3 m 0,-8 3,0 0,-3 -3,0 0,3 m -16,12 3,0 0,-3 -3,0 0,3"
         style="fill:#666666;fill-opacity:1"
         id="path6388"
         inkscape:connector-curvature="0" />
      <path
         d="m 86.54018,783.43359 3,0 0,-3 -3,0 0,3 m 16,-8 3,0 0,-3 -3,0 0,3 m -16,0 3,0 0,-3 -3,0 0,3 m 16,8 3,0 0,-3 -3,0 0,3 m -8,-4 3,0 0,-3 -3,0 0,3 m 8,-8 3,0 0,-3 -3,0 0,3 m -8,-4 3,0 0,-3 -3,0 0,3 m -4,4 3,0 0,-3 -3,0 0,3 m 4,0 3,0 0,-3 -3,0 0,3 m -8,8 3,0 0,-3 -3,0 0,3 m 0,-12 3,0 0,-3 -3,0 0,3 m 12,4 3,0 0,-3 -3,0 0,3 m -4,4 3,0 0,-3 -3,0 0,3 m 0,8 3,0 0,-3 -3,0 0,3 m -8,-12 3,0 0,-3 -3,0 0,3 m 16,8 3,0 0,-3 -3,0 0,3 m 0,-12 3,0 0,-3 -3,0 0,3"
         style="fill:#666666;fill-opacity:1"
         id="path6390"
         inkscape:connector-curvature="0" />
      <path
         d="m 138.50893,783.43359 3,0 0,-3 -3,0 0,3 m 4,0 3,0 0,-3 -3,0 0,3 m 8,-4 3,0 0,-3 -3,0 0,3 m -16,0 3,0 0,-3 -3,0 0,3 m 12,4 3,0 0,-3 -3,0 0,3 m 0,-16 3,0 0,-3 -3,0 0,3 m -12,4 3,0 0,-3 -3,0 0,3 m 8,-4 3,0 0,-3 -3,0 0,3 m -8,8 3,0 0,-3 -3,0 0,3 m 16,0 3,0 0,-3 -3,0 0,3 m -12,-8 3,0 0,-3 -3,0 0,3 m 12,4 3,0 0,-3 -3,0 0,3"
         style="fill:#666666;fill-opacity:1"
         id="path6392"
         inkscape:connector-curvature="0" />
      <path
         d="m 158.49331,783.43359 3,0 0,-3 -3,0 0,3 m 8,-16 3,0 0,-3 -3,0 0,3 m -8,8 3,0 0,-3 -3,0 0,3 m 12,-8 3,0 0,-3 -3,0 0,3 m -12,4 3,0 0,-3 -3,0 0,3 m 4,-4 3,0 0,-3 -3,0 0,3 m -4,12 3,0 0,-3 -3,0 0,3 m 8,-4 3,0 0,-3 -3,0 0,3 m 4,0 3,0 0,-3 -3,0 0,3 m -12,-8 3,0 0,-3 -3,0 0,3 m 16,0 3,0 0,-3 -3,0 0,3 m -12,8 3,0 0,-3 -3,0 0,3"
         style="fill:#666666;fill-opacity:1"
         id="path6394"
         inkscape:connector-curvature="0" />
      <path
         d="m 206.46206,783.43359 3,0 0,-3 -3,0 0,3 m 12,0 3,0 0,-3 -3,0 0,3 m 0,-8 3,0 0,-3 -3,0 0,3 m -12,-4 3,0 0,-3 -3,0 0,3 m 4,-4 3,0 0,-3 -3,0 0,3 m 4,0 3,0 0,-3 -3,0 0,3 m -4,16 3,0 0,-3 -3,0 0,3 m 4,-8 3,0 0,-3 -3,0 0,3 m 0,8 3,0 0,-3 -3,0 0,3 m 4,-16 3,0 0,-3 -3,0 0,3 m 4,12 3,0 0,-3 -3,0 0,3 m 0,-12 3,0 0,-3 -3,0 0,3 m -12,8 3,0 0,-3 -3,0 0,3"
         style="fill:#666666;fill-opacity:1"
         id="path6396"
         inkscape:connector-curvature="0" />
      <path
         d="m 234.44643,783.43359 3,0 0,-3 -3,0 0,3 m 12,-4 3,0 0,-3 -3,0 0,3 m -4,4 3,0 0,-3 -3,0 0,3 m -8,-16 3,0 0,-3 -3,0 0,3 m -4,12 3,0 0,-3 -3,0 0,3 m 0,-8 3,0 0,-3 -3,0 0,3 m 0,4 3,0 0,-3 -3,0 0,3 m 8,-8 3,0 0,-3 -3,0 0,3 m 0,16 3,0 0,-3 -3,0 0,3 m 4,-16 3,0 0,-3 -3,0 0,3 m 4,4 3,0 0,-3 -3,0 0,3"
         style="fill:#666666;fill-opacity:1"
         id="path6398"
         inkscape:connector-curvature="0" />
      <path
         d="m 258.43081,783.43359 3,0 0,-3 -3,0 0,3 m 4,0 3,0 0,-3 -3,0 0,3 m 8,-4 3,0 0,-3 -3,0 0,3 m -16,0 3,0 0,-3 -3,0 0,3 m 12,4 3,0 0,-3 -3,0 0,3 m 0,-16 3,0 0,-3 -3,0 0,3 m -12,4 3,0 0,-3 -3,0 0,3 m 8,-4 3,0 0,-3 -3,0 0,3 m -8,8 3,0 0,-3 -3,0 0,3 m 16,0 3,0 0,-3 -3,0 0,3 m -12,-8 3,0 0,-3 -3,0 0,3 m 12,4 3,0 0,-3 -3,0 0,3"
         style="fill:#666666;fill-opacity:1"
         id="path6400"
         inkscape:connector-curvature="0" />
      <path
         d="m 282.41518,783.43359 3,0 0,-3 -3,0 0,3 m -4,-16 3,0 0,-3 -3,0 0,3 m 4,8 3,0 0,-3 -3,0 0,3 m 0,-4 3,0 0,-3 -3,0 0,3 m 8,-4 3,0 0,-3 -3,0 0,3 m -12,16 3,0 0,-3 -3,0 0,3 m 4,-16 3,0 0,-3 -3,0 0,3 m 4,16 3,0 0,-3 -3,0 0,3 m 0,-12 3,0 0,-3 -3,0 0,3 m 8,-4 3,0 0,-3 -3,0 0,3 m -12,12 3,0 0,-3 -3,0 0,3 m 8,4 3,0 0,-3 -3,0 0,3"
         style="fill:#666666;fill-opacity:1"
         id="path6402"
         inkscape:connector-curvature="0" />
      <path
         d="m 306.39956,783.43359 3,0 0,-3 -3,0 0,3 m 8,0 3,0 0,-3 -3,0 0,3 m -12,-12 3,0 0,-3 -3,0 0,3 m 12,4 3,0 0,-3 -3,0 0,3 m 4,0 3,0 0,-3 -3,0 0,3 m 0,8 3,0 0,-3 -3,0 0,3 m -16,-8 3,0 0,-3 -3,0 0,3 m 0,4 3,0 0,-3 -3,0 0,3 m 16,-8 3,0 0,-3 -3,0 0,3 m -12,-4 3,0 0,-3 -3,0 0,3 m 4,8 3,0 0,-3 -3,0 0,3 m 0,8 3,0 0,-3 -3,0 0,3 m -4,-8 3,0 0,-3 -3,0 0,3 m 8,-8 3,0 0,-3 -3,0 0,3 m -4,0 3,0 0,-3 -3,0 0,3"
         style="fill:#666666;fill-opacity:1"
         id="path6404"
         inkscape:connector-curvature="0" />
      <path
         d="m 326.38393,783.43359 3,0 0,-3 -3,0 0,3 m 12,0 3,0 0,-3 -3,0 0,3 m 0,-8 3,0 0,-3 -3,0 0,3 m -12,-4 3,0 0,-3 -3,0 0,3 m 4,-4 3,0 0,-3 -3,0 0,3 m 4,0 3,0 0,-3 -3,0 0,3 m -4,16 3,0 0,-3 -3,0 0,3 m 4,-8 3,0 0,-3 -3,0 0,3 m 0,8 3,0 0,-3 -3,0 0,3 m 4,-16 3,0 0,-3 -3,0 0,3 m 4,12 3,0 0,-3 -3,0 0,3 m 0,-12 3,0 0,-3 -3,0 0,3 m -12,8 3,0 0,-3 -3,0 0,3"
         style="fill:#666666;fill-opacity:1"
         id="path6406"
         inkscape:connector-curvature="0" />
    </g>
  </g>
</svg>
