<svg xmlns="http://www.w3.org/2000/svg" width="65.534" height="65.318"><defs><clipPath id="d"><path fill="none" stroke="#4e4e4e" stroke-width="0" stroke-linecap="round" stroke-linejoin="round" d="M42.174 77.19h65.534v65.407H42.174z"/></clipPath><clipPath id="a"><path fill="none" stroke="#4e4e4e" stroke-width="0" stroke-linecap="round" stroke-linejoin="round" d="M202.174 349.552h65.534v65.407h-65.534z"/></clipPath><clipPath id="c"><path fill="#0d0d0d" fill-opacity=".397" d="M-1.83.457h324.953v446.698H-1.83z"/></clipPath><clipPath id="b"><path fill="#0d0d0d" fill-opacity=".397" d="M-3.764-6.68H321.19v446.697H-3.764z"/></clipPath></defs><g transform="translate(-202.174 -349.641)" clip-path="url(#a)"><path d="M260 384.862a22.5 22.5 0 1 1-1.37-7.734" fill="none" stroke="#010101" stroke-width="0" stroke-linejoin="round"/><path d="M275 389.862a30 22.5 0 1 1-1.828-7.734" fill="none" stroke="#010101" stroke-width="0" stroke-linejoin="round"/><path d="M110 107.5a30 27.5 0 1 1-60 0 30 27.5 0 1 1 60 0z" transform="matrix(.927 0 0 1.001 160.902 274.727)" fill="none" stroke="#4e4e4e" stroke-width="5.19" stroke-linecap="round" stroke-linejoin="round"/><path d="M234.706 352.362v60" fill="none" stroke="#4e4e4e" stroke-width="5" stroke-linecap="round"/><path d="M204.99 382.284h60" fill="none" stroke="#4e4e4e" stroke-width="5" stroke-linecap="round"/><path fill="none" stroke="#4e4e4e" stroke-width="0" stroke-linecap="round" stroke-linejoin="round" d="M202.222 349.76H270v67.602h-67.778z"/><path d="M245.174 382.46a10.5 10.5 0 1 1-21 0 10.5 10.5 0 1 1 21 0z" fill="#4e4e4e"/><path d="M242.55 382.46a7.875 7.875 0 1 1-15.75 0 7.875 7.875 0 1 1 15.75 0z" fill="#7a7a7a"/><path d="M240.58 382.46a5.906 5.906 0 1 1-11.812 0 5.906 5.906 0 1 1 11.812 0z" fill="#fff"/><path d="M-30.42 218.175v-248.5h756v497h-756v-248.5z" transform="matrix(.02 0 0 .02 231.343 378.208)" clip-path="url(#b)" fill="#fbfbfb"/><path transform="matrix(.02 0 0 .02 231.304 378.066)" clip-path="url(#c)" fill="none" d="M0 .457h324.04v446.698H0z"/><path d="M236.17 352.475a1.495 1.446 0 1 1-2.99 0 1.495 1.446 0 1 1 2.99 0z" fill="#0d0d0d" fill-opacity=".397"/><path d="M206.666 382.418a1.495 1.446 0 1 1-2.99 0 1.495 1.446 0 1 1 2.99 0z" fill="#0d0d0d" fill-opacity=".397"/><path d="M236.17 412.41a1.495 1.446 0 1 1-2.99 0 1.495 1.446 0 1 1 2.99 0z" fill="#0d0d0d" fill-opacity=".397"/><path d="M266.503 382.32a1.495 1.446 0 1 1-2.99 0 1.495 1.446 0 1 1 2.99 0z" fill="#0d0d0d" fill-opacity=".397"/></g><path transform="translate(-42.174 -77.279)" clip-path="url(#d)" fill="none" stroke="#4e4e4e" stroke-width="0" stroke-linecap="round" stroke-linejoin="round" d="M42.174 77.316h65.407v65.407H42.175z"/></svg>